<?xml version="1.0" encoding="UTF-8"?>
<svg id="Layer_1" data-name="Layer 1" xmlns="http://www.w3.org/2000/svg" viewBox="0 0 1440 1440">
  <defs>
    <style>
      .cls-1 {
        fill: #474747;
      }

      .cls-2 {
        fill: #fefefe;
      }

      .cls-3 {
        fill: none;
        stroke: #f48030;
        stroke-linecap: round;
        stroke-miterlimit: 10;
        stroke-width: 16px;
      }

      .cls-4 {
        fill: #fff;
      }

      .cls-5 {
        fill: #f48030;
      }
    </style>
  </defs>
  <circle class="cls-1" cx="720" cy="720" r="720"/>
  <g>
    <path class="cls-4" d="M720,1216.5c-67.03,0-132.05-13.13-193.26-39.01-59.12-25.01-112.22-60.81-157.82-106.41-45.6-45.6-81.4-98.7-106.41-157.82-25.89-61.21-39.01-126.23-39.01-193.26s13.13-132.05,39.01-193.26c25.01-59.12,60.81-112.22,106.41-157.82,45.6-45.6,98.7-81.4,157.82-106.41,61.21-25.89,126.23-39.01,193.26-39.01s132.05,13.13,193.26,39.01c59.12,25.01,112.22,60.81,157.82,106.41,45.6,45.6,81.4,98.7,106.41,157.82,25.89,61.21,39.01,126.23,39.01,193.26s-13.13,132.05-39.01,193.26c-25.01,59.12-60.81,112.22-106.41,157.82-45.6,45.6-98.7,81.4-157.82,106.41-61.21,25.89-126.23,39.01-193.26,39.01Z"/>
    <path class="cls-1" d="M720,231c66.02,0,130.06,12.93,190.34,38.42,58.23,24.63,110.52,59.89,155.44,104.8,44.91,44.91,80.17,97.21,104.8,155.44,25.5,60.28,38.42,124.32,38.42,190.34s-12.93,130.06-38.42,190.34c-24.63,58.23-59.89,110.53-104.8,155.44-44.91,44.91-97.21,80.17-155.44,104.8-60.28,25.49-124.32,38.42-190.34,38.42s-130.06-12.93-190.34-38.42c-58.23-24.63-110.52-59.89-155.44-104.8-44.91-44.91-80.17-97.21-104.8-155.44-25.5-60.28-38.42-124.32-38.42-190.34s12.93-130.06,38.42-190.34c24.63-58.23,59.89-110.53,104.8-155.44,44.91-44.91,97.21-80.17,155.44-104.8,60.28-25.49,124.32-38.42,190.34-38.42M720,216c-278.35,0-504,225.65-504,504s225.65,504,504,504,504-225.65,504-504-225.65-504-504-504h0Z"/>
  </g>
  <g>
    <path class="cls-4" d="M165.66,807.27c-2.44.2-13.25,1.5-21.01,3.37-1.67-.41-2.52-4.02-1.37-5.07,12.3-4.7,18.37-13.93,17.28-27.08-1.24-15.04-15.45-30.11-42.42-27.89-26.97,2.22-40.19,19.01-38.85,35.27,1.35,16.4,13.77,23.02,23.29,25.92,1.17,1,1.04,4.28-.52,5.23-10.11-.12-18.43-1.76-21.71-3.4-2.64-7.15-6.41-16.53-7.28-27.1-1.09-13.28.91-27.09,7.3-37.31,6.65-10.37,17.29-18.76,34.09-20.14,16.54-1.36,28.77,4.72,37.27,13.44,8.79,8.96,14,22.46,15.16,36.55,1.14,13.83-1.29,24.12-1.22,28.21Z"/>
    <path class="cls-4" d="M109.91,858.36c-6.22,1.46-10.34,2.98-12.05,5.2-1.85,2.25-2.35,4.88-.09,14.55,2.82,12.05,4.08,15.66,21.27,19.88,1.57.75,1.76,3.92.38,5.22-7.04.95-18.78.34-22.78-.67-1.38-7.08-4.22-19.82-6.76-30.68l-4.15-17.74c-1.43-6.09-3.11-12.68-5.29-20.83.52-1.38,3.5-2.36,4.54-1.48l1.84,4.88c2.19,5.77,3.43,6.32,15.75,3.44l49.26-11.53c12.31-2.88,13.32-3.96,12.72-10.1l-.37-3.96c.48-1.51,3.53-2.22,4.7-.82,1.35,6.95,2.76,13.6,4.25,19.96,1.49,6.36,3.17,12.95,4.98,19.5-.55,1.25-3.59,1.96-4.63,1.08l-1.33-3.32c-2.32-5.74-3.57-6.29-15.88-3.41l-46.35,10.85Z"/>
    <path class="cls-4" d="M131.22,939.61c-12.05,4.28-12.67,5.37-11.6,11.63l.63,3.82c-.4,1.3-3.4,2.22-4.53,1.47-2.2-7.01-4.31-13.33-6.45-19.36-2.19-6.15-4.59-12.51-7.31-19.34.4-1.3,3.35-2.35,4.49-1.59l1.92,3.36c3.12,5.53,4.29,5.98,16.34,1.7l47.16-16.76c12.05-4.28,12.67-5.37,11.6-11.63l-.63-3.82c.4-1.3,3.35-2.35,4.49-1.59,2.2,7.01,4.35,13.46,6.54,19.61,2.14,6.02,4.55,12.38,7.26,19.21-.4,1.3-3.35,2.35-4.49,1.59l-1.92-3.36c-3.12-5.53-4.29-5.98-16.34-1.7l-47.16,16.76Z"/>
    <path class="cls-4" d="M196.43,934.13c.45-1.47,3.33-3.01,4.39-1.88,1.94,4.21,4.57,9.43,7.71,15.31,2.11,3.96,3.97,7.44,6.64,11.57-7.44,3.97-12.52,12.08-20.98,23.38l-12.69,16.95c-1.82,2.36-7.08,10.72-9.18,14,3.71.02,8.46-.04,17.27-.58l16.46-.93c15.43-.84,23.39-1.23,35.12-4.1,2.47,5.78,4.06,8.47,5.98,12.07,2.11,3.96,5.18,9.42,7.73,13.6-.02,1.7-2.29,2.92-4.01,2.6l-2.46-3.16c-3.47-4.47-6.19-6.1-12.55-2.71-24.72,13.2-37.55,20.35-52.28,29.14-5.39,3.19-8.01,5.2-6.12,10.2l1.57,4.09c-.45,1.47-3.21,2.95-4.33,2.01-2.71-5.65-5.34-10.87-8.48-16.75-2.88-5.4-6.53-11.93-9.84-17.57-.17-1.76,2.53-3.35,4.01-2.6l2.4,3.34c3.67,5.13,5.11,4.37,12.42.46l31.07-16.89,13.68-7.3-.13-.24c-23.94,1.37-49.1,2.47-73.6,5.38-.8-.34-1.61-.99-2.12-1.95-.58-1.08-1.04-2.53-.95-3.5,12.38-12.62,34.26-43.27,46.27-58.31l-.13-.24c-8.05,3.68-13.4,6.38-19.7,9.59-7.86,4.04-19.92,10.33-27.12,14.17-6,3.2-7.29,4.82-5.45,10l1.78,5.06c-.33,1.41-3.22,2.64-4.33,2-2.13-4.57-4.76-9.79-7.2-14.35-2.05-3.84-4.6-8.33-7.41-13.01-.35-1.82,2.77-3.48,3.94-2.72l1.51,1.97c4.35,5.54,5.45,5.88,13.27,2.63,6.2-2.54,16.83-7.75,28.61-13.12,8.29-3.81,18.14-8.76,24.62-12.22,6.84-3.65,7.23-7.25,5.51-12.5l-.93-2.9Z"/>
    <path class="cls-4" d="M247.07,1057.7c10.78-8.51,11.68-9.57,8.78-14.56l-1.85-3.22c-.22-1.38,2.81-4.12,4.18-2.61,6.94,7.69,13.52,15.14,21.95,25.81,8.09,10.25,12.31,18,13.25,24.89.85,6.78-1.44,13.1-7.74,18.07-8.96,7.08-18.47,2.29-21.94-.35-1.06-.9-2.33-1.63-2.86-1.21-.32.25-.22,1.04.33,2.17,4.84,9.86,4.94,21.4-5.33,29.68-9.73,7.86-20.13,6.54-27.79,1.67-7.66-4.87-14.3-12.62-19.44-19.13-3.03-3.84-5.81-8.23-8.25-11.33-4.13-5.23-8.37-10.37-13.38-16.29-.03-1.36,2.74-3.55,3.74-2.95l3.08,2.59c4.75,4.04,6.01,4.09,15.61-3.49l37.67-29.75ZM223.7,1100.07c-8.32,6.57-12.71,11.77-6.14,20.1,6.24,7.9,15.61,7.25,24.25.43,9.29-7.33,11.58-17.81,3.49-28.06-4.64-5.87-4.74-5.79-9.01-2.41l-12.59,9.95ZM248.35,1080.6c-2.77,2.19-2.9,2.47,1.48,8.02,7.25,9.18,15.82,7.96,22.22,2.9,9.29-7.33,9.32-16.72,3.51-24.08-3.96-5.02-4.9-4.45-9.59-.74l-17.61,13.91Z"/>
    <path class="cls-4" d="M282.2,1170.55c-9.05,9.03-9.15,10.28-5.5,15.48l2.21,3.18c.19,1.35-2.12,3.46-3.47,3.27-4.99-5.39-9.6-10.2-14.12-14.73-4.61-4.62-9.51-9.34-14.89-14.34-.19-1.35,2.02-3.56,3.37-3.36l3.17,2.22c5.19,3.66,6.44,3.56,15.49-5.46l35.43-35.35c9.05-9.03,9.15-10.28,5.5-15.48l-2.21-3.18c-.19-1.35,2.02-3.56,3.37-3.36,4.99,5.39,9.7,10.3,14.31,14.92,4.51,4.52,9.41,9.24,14.79,14.25.19,1.35-2.02,3.56-3.37,3.36l-3.17-2.21c-5.19-3.66-6.44-3.57-15.49,5.46l-35.43,35.35Z"/>
    <path class="cls-4" d="M368.23,1237.92c-5.4,7-10.64,13.78-13.17,17.49-1.75.71-5.68-.43-8.26-2.43-.11-.08.58-8.32.35-18.47l-1.08-49.99c-.34-12.46-.4-19.73-1.09-22.84-1.37.66-2.78,2.49-5.86,6.47l-16.13,20.88c-6.74,8.72-12.54,17.12-13.6,20.94-.78,3.01,1.12,5.67,3.58,8.27l2.68,2.76c.2,1.53-1.77,3.62-2.91,3.77-5.65-4.71-9.87-8.14-14.17-11.46-3.98-3.08-8.05-6.04-12.3-8.99-.15-1.14,1.38-3.57,2.91-3.77l2.08,1.09c3.32,1.71,6.06,2.62,8.66,1.02,3.43-1.99,9.99-9.81,16.72-18.53l21.12-27.33c4.57-5.92,5.8-7.72,6.31-9.73.55-2.5.04-4.95-3.31-8.4l-2.68-2.76c-.09-1.44,2.01-3.94,3.34-3.43,4.89,4.12,10.19,8.39,14.6,11.8,3.66,2.83,6.86,5.13,9.29,6.66-2.67,5.67-1.99,19.26-1.2,38.26l.81,17.64c.41,9.25.62,15.43,1.19,19.82,1.26-.74,2.68-2.57,4.17-4.51l11.47-14.85c6.73-8.72,12.54-17.12,13.6-20.94.78-3.01-1.01-5.59-3.58-8.27l-2.57-2.67c-.2-1.53,1.77-3.62,2.91-3.76,5.65,4.71,9.76,8.06,14.17,11.46,3.98,3.08,7.94,5.96,12.3,8.99.15,1.14-1.38,3.57-2.91,3.77l-2.19-1.17c-3.13-1.73-5.84-2.45-8.55-.94-3.43,1.99-10.1,9.73-16.83,18.45l-19.87,25.72Z"/>
    <path class="cls-4" d="M460.15,1298.39c-2.67,5.05-3.7,7.58-1.67,9.27.23.74-.97,2.71-1.89,2.69-2.23-.72-5.55-2.01-9.37-2.65-4.91-.9-16.07-4.81-22.8-8.37-8.17-4.33-14.7-8.86-21.46-16.74-11.08-13.09-13.63-31.52-4.47-48.83,7.95-15.03,21.68-24.69,40.36-25.11,10.53-.12,21.28,3.1,31.5,8.51,13.34,7.06,18.43,13.44,22.27,15.48-1.55,3.8-5.88,12.28-8.56,20.24-1.18,1.07-4.49-.53-4.69-2.18,2.13-13.33-2.45-22.99-13.63-28.91-19.11-10.11-36.76.86-46.81,19.85-9.09,17.19-8.61,30.52-3.59,39.95,3.73,6.9,9.6,10.93,14.05,13.28,6.85,3.62,8.99,3.07,13.13-4.75l4.01-7.57c3.43-6.49,3.09-7.59-2.23-11.49l-4.91-3.52c-.94-1.42.52-4.19,2.23-4.21,8.41,4.76,14.23,7.99,20.12,11.11,5.77,3.05,11.72,6.05,15.94,7.97.58,1.23-.88,4-2.23,4.21l-3.02-.98c-3.92-1.31-5.28-.49-8.72,6l-3.56,6.73Z"/>
    <path class="cls-4" d="M648.66,1320.48c-5.8,29.08-28.75,42.67-57.43,36.95-26.81-5.35-42.77-26.83-37.21-54.71,5.27-26.41,29.08-42.88,56.95-37.32,27.74,5.53,43.09,28.01,37.69,55.08ZM608.68,1271.32c-16.41-3.27-28.27,10.31-32.71,32.59-3.24,16.27-2.72,43.56,19.02,47.89,17.47,3.48,27.68-12.23,31.99-33.84,4.55-22.81-1.76-43.34-18.3-46.64Z"/>
    <path class="cls-4" d="M672.99,1298.95c.5-13.73.29-15.37-5.39-16.26l-4.19-.7c-1.2-.72-1.09-3.71.44-4.61,9-.35,19.62-.51,31.44-.07,11.55.42,19.11,2.06,24.74,4.44,8.18,3.43,16.2,10.94,15.72,24.12-.82,22.29-23.36,24.73-30.56,24.47-1.63-.06-2.85-.1-4.34-.29-1.06-.72-1.25-2.9-.27-3.68,11.41-3.12,14.01-11.05,14.38-21.11s-4.4-21.12-16.63-21.57c-5.03-.18-5.36,1.3-5.55,6.74l-2.1,57.35c-.46,12.64.31,13.76,6.39,14.93l4.32.84c1.47.73,1.36,3.86-.17,4.62-7.6-.55-14.26-.93-20.78-1.17-6.52-.24-13.05-.34-20.4-.34-1.46-.87-1.62-4.01-.1-4.63l3.83-.54c6.16-.86,7.01-1.79,7.47-14.42l1.76-48.11Z"/>
    <path class="cls-4" d="M753.63,1299.87c-1.37-13.67-1.81-15.26-7.56-15.37l-4.25-.12c-1.29-.55-1.59-3.53-.19-4.63,8.86-1.58,19.36-3.18,31.13-4.36,11.5-1.16,19.22-.57,25.12,1.03,8.57,2.28,17.54,8.62,18.86,21.75,2.23,22.19-19.77,27.68-26.94,28.41-1.62.16-2.84.29-4.34.3-1.15-.57-1.64-2.71-.77-3.61,10.88-4.65,12.38-12.86,11.37-22.88-1.01-10.01-7.24-20.32-19.42-19.1-5.01.5-5.13,2.02-4.58,7.43l5.74,57.1c1.27,12.58,2.19,13.58,8.37,13.92l4.4.24c1.56.53,1.87,3.64.46,4.6-7.6.49-14.25,1.02-20.74,1.68s-12.98,1.44-20.26,2.45c-1.57-.66-2.15-3.75-.73-4.57l3.72-1.06c5.98-1.7,6.7-2.72,5.43-15.31l-4.82-47.9Z"/>
    <path class="cls-4" d="M922.77,1289.83c7.66,28.64-6.91,50.98-35.16,58.54-26.41,7.07-50.23-5.14-57.58-32.6-6.96-26.01,7.1-51.32,34.56-58.66,27.33-7.31,51.04,6.05,58.17,32.72ZM865.17,1263.43c-16.16,4.32-20.79,21.75-14.92,43.69,4.29,16.03,16.83,40.27,38.24,34.54,17.21-4.61,19.41-23.21,13.71-44.5-6.01-22.47-20.75-38.09-37.04-33.73Z"/>
    <path class="cls-4" d="M935.02,1259.97c-5.68-12.36-6.55-13.6-12.08-11.96l-3.56,1.04c-1.52-.05-2.94-3.14-1.74-4.44,8.98-4.88,18.4-9.8,30.14-15.19,10.5-4.83,20.26-7.36,26.27-6.68,9.1.91,15.64,5.38,19.28,13.29,5.05,11-.2,19.1-4.58,24.56-.95,1.19-.61,1.93.63,3,15.76,12.81,25.09,19.75,33.35,22.09,4.41,1.12,7.96.38,9.87-.34,1.4.11,2.25,1.96,1.97,2.99-1.58,1.77-5.42,3.84-9.25,5.6-11.37,5.22-20.41,4.44-29.94-1.96-6.96-4.73-12.59-9.48-18.44-14.73-3.02-2.66-5.45-2.74-8.54-1.32-4.33,1.99-4.46,2.35-3.32,4.82l6.98,15.2c5.22,11.37,6.36,11.89,12.38,10.33l3.62-.92c1.15.22,2.51,3.19,1.99,4.33-6.66,2.76-12.4,5.25-18.34,7.98-6.18,2.84-11.56,5.46-17.87,8.66-1.33-.29-2.69-3.25-1.99-4.33l3.05-2.15c5.11-3.54,5.45-4.75.23-16.12l-20.1-43.75ZM959.16,1267.89c1.99,4.33,2.53,4.53,9.82,1.18,4.45-2.04,6.53-4.35,7.8-7.78,1.14-3.07,1.67-8.1-1.68-15.39-5.11-11.12-14.95-15.28-24.59-10.85-5.07,2.33-5.14,2.81-2.42,8.74l11.07,24.1Z"/>
    <path class="cls-4" d="M1018.78,1203.78c-1.76-2.75-2.13-3.32-4.88-1.56l-7.1,4.55c-8.36,5.36-7.82,11.48-5.89,22.04-.93,1.57-3.25,2.73-4.9,1.69-2.66-9.44-6.64-16.9-8.71-21.88.24-.64.66-1.23,1.24-1.6s1.22-.62,1.9-.57c1.82,1.58,2.46,1.82,11.16-3.77l42.58-27.32c7.55-4.85,9.2-6.06,8.68-9.13.31-.52.58-.86,1.27-1.3.69-.44,1.78-.5,2.23-.3,1.35,4.63,6.5,14.41,10.92,20.79.09,1.4-2.85,3.61-4.01,3.06-6.65-6.08-11.7-10.43-20.28-4.92l-6.87,4.41c-2.75,1.76-2.87,2.33-.96,5.3l32.39,50.48c6.83,10.64,8.1,11.12,13.7,8.5l4.95-2.37c1.24.17,2.93,2.81,2.57,4.01-7.59,4.54-13.38,8.1-18.53,11.41-5.49,3.53-11.37,7.46-19.24,12.83-1.36-.1-3.05-2.73-2.57-4.01l4.78-3.88c4.78-3.88,4.81-5.35-2.02-15.99l-32.39-50.48Z"/>
    <path class="cls-4" d="M1078.69,1174.43c-8.43-9.42-9.59-9.49-14.96-6.32l-2.99,1.76c-1.35.12-3.45-2.02-2.88-3.62,5.05-4.15,10.21-8.58,15.07-12.94,4.97-4.44,9.84-8.99,14.53-13.55,1.35-.12,3.35,2.11,3.08,3.45l-2.07,2.58c-3.84,4.89-3.72,6.25,4.71,15.67l20.95,23.41c10.61,11.86,23.63,23.75,39.03,9.97,12.97-11.61,6.77-26.5-5.65-40.38l-10.97-12.26c-7.35-8.21-14.64-15.55-18.12-17.19-2.82-1.31-5.59.07-8.78,2.02l-3.19,1.94c-1.54-.09-3.15-2.29-3.08-3.44,5.65-4.69,9.7-8.13,13.85-11.85,3.75-3.36,7.41-6.81,11.08-10.46,1.15.06,3.17,1.91,3.08,3.45l-1.46,2.04c-2.09,2.97-3.47,5.3-2.48,8.24,1.24,3.63,7.73,11.7,15.08,19.91l10.16,11.35c8.52,9.53,15.41,19.06,15.37,30.23-.2,8.75-5.33,17.91-13.54,25.25-7.7,6.89-15.68,11.84-25.14,12.28-9.17.36-18.11-5.15-27.99-16.19l-22.67-25.34Z"/>
    <path class="cls-4" d="M1233.58,1078.06c6.93,5.49,13.64,10.81,17.33,13.38.69,1.76-.5,5.67-2.53,8.23-.08.11-8.31-.68-18.46-.57l-49.99.47c-12.47.19-19.73.16-22.85.81.64,1.38,2.46,2.81,6.4,5.94l20.68,16.38c8.63,6.84,16.97,12.75,20.77,13.85,3,.81,5.69-1.05,8.31-3.48l2.79-2.65c1.53-.18,3.6,1.81,3.73,2.96-4.77,5.59-8.26,9.77-11.63,14.03-3.12,3.94-6.14,7.97-9.14,12.19-1.15.13-3.55-1.43-3.73-2.96l1.12-2.07c1.75-3.3,2.69-6.02,1.13-8.65-1.95-3.45-9.69-10.11-18.33-16.95l-27.08-21.45c-5.86-4.64-7.65-5.89-9.65-6.43-2.49-.58-4.95-.1-8.44,3.21l-2.79,2.65c-1.44.07-3.92-2.06-3.39-3.38,4.18-4.84,8.51-10.09,11.97-14.46,2.87-3.62,5.21-6.8,6.77-9.21,5.64,2.73,19.23,2.22,38.24,1.66l17.65-.59c9.26-.3,15.44-.43,19.83-.94-.73-1.27-2.54-2.71-4.46-4.23l-14.71-11.65c-8.63-6.84-16.97-12.75-20.77-13.85-3-.81-5.6.94-8.31,3.48l-2.71,2.54c-1.53.18-3.6-1.81-3.73-2.95,4.77-5.59,8.17-9.66,11.64-14.03,3.12-3.94,6.06-7.87,9.14-12.19,1.15-.13,3.55,1.43,3.73,2.96l-1.2,2.17c-1.77,3.11-2.52,5.81-1.04,8.54,1.95,3.45,9.61,10.21,18.24,17.05l25.48,20.18Z"/>
    <path class="cls-4" d="M1263.92,1034.55c10.96,6.58,12.2,6.37,16.35,1.57l2.54-2.92c1.26-.51,3.87,1.21,4.01,2.57-4.01,6.16-7.56,11.8-10.85,17.28-3.36,5.6-6.74,11.5-10.29,17.93-1.26.51-3.94-1.1-4.08-2.45l1.38-3.62c2.29-5.92,1.89-7.11-9.07-13.69l-42.91-25.76c-10.96-6.58-12.2-6.37-16.35-1.57l-2.54,2.92c-1.26.51-3.94-1.1-4.08-2.45,4.01-6.16,7.63-11.92,10.99-17.51,3.29-5.48,6.67-11.38,10.22-17.82,1.26-.51,3.94,1.1,4.08,2.45l-1.38,3.61c-2.29,5.92-1.89,7.11,9.07,13.69l42.91,25.76Z"/>
    <path class="cls-4" d="M1234.94,961.29c-2.98-1.34-3.6-1.62-4.94,1.36l-3.46,7.69c-4.07,9.05-.28,13.89,7.1,21.68.07,1.82-1.23,4.07-3.18,4.09-7.39-6.45-14.8-10.53-19.24-13.58-.15-.66-.12-1.4.16-2.02s.68-1.18,1.28-1.51c2.39.33,3.05.18,7.29-9.25l20.75-46.14c3.68-8.19,4.39-10.1,2.29-12.39-.03-.61.02-1.04.35-1.78.33-.74,1.22-1.39,1.71-1.47,3.66,3.14,13.31,8.52,20.5,11.46.84,1.12-.42,4.58-1.69,4.76-8.89-1.46-15.5-2.35-19.68,6.95l-3.35,7.44c-1.34,2.98-1.13,3.52,2.09,4.97l54.69,24.6c11.53,5.19,12.86,4.89,16.12-.36l2.85-4.68c1.13-.53,3.99.75,4.34,1.95-3.87,7.95-6.79,14.1-9.3,19.68-2.68,5.95-5.45,12.46-9.11,21.25-1.19.66-4.04-.62-4.34-1.95l1.89-5.86c1.89-5.86,1.11-7.11-10.43-12.29l-54.69-24.6Z"/>
    <path class="cls-4" d="M1322.34,899.04c12.2,3.83,13.35,3.33,16.26-2.31l1.79-3.43c1.1-.79,4.05.27,4.5,1.56-2.46,6.92-4.58,13.24-6.5,19.34-1.96,6.23-3.86,12.76-5.8,19.84-1.1.79-4.09-.14-4.54-1.42l.49-3.84c.84-6.29.17-7.36-12.03-11.19l-47.75-14.99c-12.2-3.83-13.35-3.33-16.26,2.31l-1.79,3.43c-1.1.79-4.09-.14-4.54-1.43,2.46-6.92,4.62-13.37,6.58-19.6,1.91-6.1,3.82-12.63,5.76-19.72,1.1-.79,4.09.14,4.54,1.43l-.49,3.84c-.83,6.29-.17,7.36,12.03,11.19l47.75,14.99Z"/>
    <path class="cls-4" d="M1301.7,839.01c3.74.72,4.03.64,4.73-2.96l1.79-9.21c1.35-6.94.72-8.73-5.43-11.3l-3.21-1.31c-.89-1.14-.24-4.48,1.09-4.92,4.22,1.1,9,2.16,14.07,3.15,5.07.98,9.91,1.78,14.23,2.34,1.07.9.56,4.26-.82,4.97l-3.47.02c-6.67.09-8.05,1.49-9.39,8.43l-1.79,9.21c-.7,3.6-.59,3.76,3.41,4.54l15.89,3.08c6.14,1.19,10.52,1.49,13.1.32,2.74-1.27,4.3-3.6,6.19-13.35,2.25-11.62,2.73-16.23-10.93-26.5-1.26-1.35-.08-4.59,1.63-4.81,6.84,1.88,17.03,7.18,20.27,9.75-1.64,7.02-4.26,19.82-6.38,30.76l-3.37,17.36c-1.24,6.41-2.38,12.98-4.05,23.04-1.01.91-4.21.29-4.67-.91l.28-6.46c.23-6.19-.42-7.15-12.7-9.53l-49.8-9.66c-12.15-2.36-13.11-1.71-15.47,4.06l-1.32,3.21c-1.03,1.05-4.08.32-4.62-1.17,1.48-6.22,2.89-12.74,4.13-19.15l5.49-28.3c1.66-8.54,3-16.18,3.07-17.97,2.16.28,11.96,1.21,21.03,2.28,1.37.82,1.04,3.94-.42,5.04-4.96.56-9.33,1.66-11.53,3.03-3.03,2.04-5.41,5.74-6.68,12.28l-2.07,10.68c-.85,4.41-.59,4.46,4.35,5.42l23.37,4.53Z"/>
    <path class="cls-4" d="M1368.56,766.33c-.81,12.49-4.83,19.99-6.65,22.74-3.15,2.39-13.04,3.52-22.27,2.92-1.7-1.06-1.64-4.19-.07-5.18,9-2.15,22.07-10.43,22.81-21.97.65-10.04-5.98-15.1-12.76-15.54-10.99-.71-18.17,9.18-22.77,17.06-5.52,9.46-14.35,19.65-27.79,18.79-15.34-.85-25.16-13.48-23.89-33.16.29-4.48,1.19-10.01,3.17-15.33.66-1.73,1.01-2.93,1.38-4.54,3.06-.89,10.47-1.78,19.56-1.19,1.58.78,1.5,4.19.07,5.32-7.07,1.86-17.35,7.06-17.98,16.83-.58,8.96,4.94,14.22,11.73,14.66,6.24.4,12.3-4.79,16.27-11.35l5.33-8.65c5.02-8.12,13.58-18.34,28.51-17.38,16.69,1.08,26.67,15.48,25.34,35.98Z"/>
  </g>
  <g>
    <path class="cls-4" d="M217.57,481.8c-5.27,10.91-11.62,16.19-14.25,17.99-3.7.99-12.99-1.59-21.05-5.49-1.14-1.58.06-4.36,1.82-4.68,8.86,1.35,23.61-1.32,28.48-11.41,4.24-8.78.14-15.74-5.79-18.6-9.61-4.64-19.66,1.62-26.66,7.02-8.4,6.48-20.04,12.41-31.79,6.74-13.46-6.36-17.67-21.27-9.36-38.47,1.89-3.92,4.72-8.55,8.43-12.61,1.22-1.31,1.97-2.27,2.9-3.58,3.07.31,10.05,2.22,18,6.06,1.14,1.28-.18,4.3-1.88,4.8-7.03-.91-18.15.01-22.28,8.55-3.78,7.83-.74,14.56,5.19,17.43,5.46,2.64,12.79.18,18.74-4.26l7.93-5.82c7.47-5.46,18.88-11.51,31.93-5.21,14.59,7.05,18.29,23.62,9.64,41.53Z"/>
    <path class="cls-4" d="M181.18,399.34c-10.17-6.84-11.26-6.63-15.56-2.37l-2.39,2.36c-1.24.43-3.72-1.08-3.57-2.72,3.75-5.1,7.54-10.49,11.07-15.74,3.61-5.36,7.1-10.78,10.41-16.18,1.24-.43,3.65,1.19,3.72,2.5l-1.33,2.92c-2.44,5.51-2,6.75,8.16,13.59l25.25,17c12.79,8.61,27.84,16.68,39.03.07,9.42-13.99.05-26.49-14.93-36.57l-13.22-8.9c-8.85-5.96-17.45-11.11-21.11-11.83-2.96-.56-5.23,1.4-7.77,3.98l-2.53,2.58c-1.46.29-3.5-1.4-3.72-2.5,4.19-5.76,7.17-9.94,10.19-14.43,2.72-4.04,5.34-8.16,7.91-12.46,1.1-.21,3.43,1.04,3.72,2.5l-.89,2.26c-1.26,3.28-2,5.8-.37,8.33,2.03,3.12,10.04,9.14,18.9,15.1l12.24,8.24c10.27,6.92,19.01,14.23,21.63,24.73,1.9,8.27-.74,18.09-6.7,26.94-5.59,8.31-11.91,14.86-20.69,17.52-8.53,2.52-18.23-.52-30.15-8.54l-27.32-18.39Z"/>
    <path class="cls-4" d="M244.78,315.43c-9.78-9.02-11.12-9.9-15.36-6.28l-3.16,2.65c-1.29.42-3.42-1.54-3.11-3.23,5.41-6.84,11.99-14.75,19.76-23.18,7.59-8.23,13.56-12.76,18.86-15.4,7.68-3.85,18.26-5.03,27.65,3.63,15.89,14.65,3.47,32.77-1.26,37.91-1.07,1.16-1.88,2.03-2.96,3.01-1.2.33-2.93-.91-2.88-2.12,4.89-10.36.7-17.28-6.47-23.89s-18.31-10.07-26.35-1.35c-3.3,3.58-2.42,4.76,1.46,8.33l40.88,37.69c9.01,8.31,10.32,8.44,15.02,4.71l3.34-2.65c1.47-.62,3.69,1.44,3.29,3.04-5.19,5.25-9.67,9.9-13.95,14.55-4.29,4.65-8.48,9.39-13.11,14.8-1.56.53-3.97-1.33-3.47-2.84l2.02-3.16c3.24-5.07,3.1-6.28-5.91-14.59l-34.29-31.62Z"/>
    <path class="cls-4" d="M304.59,254.24c-8.46-10.27-9.67-11.32-14.36-8.31l-3.49,2.19c-1.33.25-3.18-1.99-2.65-3.62,6.29-6.04,13.88-12.98,22.73-20.27,8.64-7.12,15.17-10.8,20.78-12.69,8.13-2.77,18.77-2.5,26.9,7.36,13.74,16.67-1.02,32.94-6.41,37.38-1.22,1.01-2.13,1.76-3.34,2.58-1.23.16-2.78-1.3-2.57-2.49,6.26-9.6,3.04-17.02-3.16-24.54-6.2-7.52-16.77-12.47-25.92-4.93-3.76,3.1-3.04,4.39.31,8.45l35.36,42.9c7.79,9.45,9.07,9.76,14.24,6.71l3.67-2.17c1.54-.41,3.46,1.92,2.85,3.46-5.86,4.49-10.92,8.49-15.8,12.52-4.88,4.02-9.68,8.15-15,12.88-1.62.31-3.75-1.86-3.05-3.29l2.43-2.85c3.9-4.58,3.93-5.8-3.87-15.25l-29.67-35.99Z"/>
    <path class="cls-4" d="M455.66,177.13c14.55,24.76,6.71,49.39-17.71,63.74-22.83,13.42-48.23,8.17-62.18-15.57-13.22-22.49-6.62-49.75,17.12-63.7,23.63-13.89,49.21-7.53,62.77,15.53ZM395.05,167.36c-13.97,8.21-13.79,25.68-2.64,44.65,8.14,13.86,26.11,33.25,44.63,22.37,14.88-8.75,12.13-26.69,1.31-45.09-11.42-19.42-29.21-30.2-43.3-21.93Z"/>
    <path class="cls-4" d="M470.63,147.53c-4.7-12.31-5.47-13.57-10.92-12.33l-3.51.78c-1.47-.15-2.64-3.22-1.4-4.4,9-4.14,18.41-8.3,30.1-12.77,10.46-4,20.06-5.83,25.82-4.79,8.74,1.46,14.78,6.2,17.79,14.08,4.19,10.95-1.41,18.45-5.99,23.45-1,1.09-.71,1.82.42,2.94,14.42,13.39,23,20.69,30.83,23.48,4.19,1.36,7.67.88,9.56.3,1.34.19,2.05,2.04,1.71,3.01-1.64,1.61-5.48,3.36-9.3,4.82-11.32,4.33-20.01,2.99-28.81-3.8-6.43-5.02-11.57-9.97-16.89-15.41-2.75-2.76-5.09-2.99-8.17-1.82-4.31,1.65-4.46,1.99-3.52,4.45l5.78,15.14c4.33,11.32,5.39,11.9,11.31,10.77l3.56-.65c1.1.29,2.23,3.24,1.65,4.31-6.62,2.25-12.33,4.29-18.23,6.54-6.15,2.35-11.52,4.54-17.83,7.24-1.27-.36-2.4-3.32-1.65-4.31l3.09-1.89c5.16-3.1,5.57-4.24,1.25-15.57l-16.65-43.57ZM493.46,156.72c1.65,4.31,2.16,4.54,9.42,1.76,4.43-1.69,6.59-3.79,8.04-7.02,1.29-2.89,2.13-7.72-.65-14.99-4.23-11.08-13.48-15.72-23.08-12.05-5.05,1.93-5.15,2.39-2.89,8.3l9.17,24Z"/>
    <path class="cls-4" d="M568.28,103.12c-.71-3.08-.86-3.72-3.94-3.01l-7.96,1.83c-9.37,2.16-10.89,7.92-12.58,18.17-1.36,1.12-3.86,1.43-5.02-.06.66-9.48-.54-17.59-.79-22.8.42-.5,1.01-.91,1.65-1.06s1.31-.17,1.92.1c1.14,2.03,1.65,2.46,11.41.21l47.76-11c8.47-1.95,10.37-2.52,10.9-5.49.46-.38.81-.59,1.58-.77.77-.18,1.79.13,2.13.46-.28,4.66,1.22,15.27,3.16,22.53-.38,1.3-3.78,2.36-4.66,1.48-4.08-7.71-7.26-13.33-16.89-11.12l-7.7,1.77c-3.08.71-3.38,1.18-2.61,4.52l13.04,56.62c2.75,11.94,3.76,12.79,9.71,12.23l5.28-.54c1.08.56,1.76,3.52,1.04,4.49-8.4,1.67-14.85,3.02-20.63,4.35-6.16,1.42-12.81,3.09-21.74,5.41-1.2-.53-1.88-3.49-1.03-4.49l5.63-1.97c5.63-1.97,6.13-3.31,3.38-15.25l-13.04-56.62Z"/>
    <path class="cls-4" d="M665.31,145.24c1.36,12.31,2.25,13.14,8.39,13.52l3.74.25c1.13.67,1.34,3.7.38,4.6-7.1.52-13.53,1.1-19.69,1.78-6.29.69-12.82,1.55-19.86,2.59-1.13-.67-1.47-3.68-.51-4.58l3.59-1.06c5.91-1.71,6.59-2.72,5.23-15.03l-5.32-48.19c-1.36-12.31-2.25-13.14-8.39-13.52l-3.74-.25c-1.13-.67-1.47-3.68-.51-4.58,7.1-.52,13.66-1.11,19.95-1.81,6.16-.68,12.69-1.53,19.73-2.58,1.13.67,1.47,3.68.51,4.58l-3.59,1.06c-5.91,1.71-6.59,2.72-5.23,15.03l5.32,48.19Z"/>
    <path class="cls-4" d="M766.19,140.28c-.14,8.56-.27,16.86-.08,21.21-.95,1.57-4.66,2.96-7.82,2.9-.13,0-4.37-6.79-10.44-14.53l-29.82-38.17c-7.49-9.48-11.75-15.08-14.08-17.09-.68,1.31-.72,3.55-.79,8.42l-.41,25.56c-.17,10.67.19,20.56,1.58,24.14,1.14,2.79,4.16,3.76,7.57,4.34l3.68.59c1.04,1.07.73,3.83-.07,4.61-7.11-.38-12.38-.6-17.65-.68-4.87-.08-9.75-.03-14.76.16-.78-.8-1-3.57.07-4.61l2.25-.36c3.57-.6,6.22-1.48,7.32-4.23,1.51-3.53,2.06-13.41,2.24-24.08l.54-33.46c.12-7.25.02-9.35-.74-11.21-1.02-2.26-2.84-3.87-7.44-4.6l-3.68-.59c-.91-1.07-.72-4.23.6-4.6,6.19.36,12.77.6,18.17.69,4.48.07,8.3,0,11.07-.21,1.22,5.95,9.62,16.1,21.25,30.39l10.85,13.22c5.69,6.94,9.43,11.62,12.41,14.7.55-1.31.58-3.55.62-5.92l.29-18.18c.17-10.67-.19-20.56-1.58-24.14-1.14-2.79-4.02-3.75-7.57-4.34l-3.55-.58c-1.04-1.07-.73-3.83.08-4.61,7.11.38,12.24.59,17.65.68,4.87.08,9.62.02,14.76-.15.78.8,1,3.57-.07,4.61l-2.38.36c-3.43.47-5.95,1.48-7.18,4.23-1.51,3.53-2.19,13.4-2.37,24.07l-.51,31.48Z"/>
    <path class="cls-4" d="M864.13,164.02c-1.02,5.44-1.24,8.08,1.12,9.06.42.61-.12,2.79-.97,3.04-2.27-.02-5.71-.26-9.43.25-4.8.58-16.25.18-23.5-1.17-8.81-1.65-16.15-3.95-24.67-9.3-14.02-8.92-21.69-25.23-18.21-43.88,3.02-16.19,12.94-29.08,30.1-34.86,9.7-3.15,20.58-3.26,31.59-1.21,14.38,2.68,20.92,7.12,25.06,7.9-.34,3.96-1.9,13.05-2.08,21.19-.78,1.33-4.31.8-4.97-.66-1.87-12.95-8.89-20.56-20.94-22.81-20.59-3.85-33.76,11.39-37.58,31.85-3.46,18.52.83,30.71,8.19,37.99,5.44,5.31,12.03,7.34,16.83,8.23,7.38,1.38,9.2.24,10.77-8.17l1.52-8.16c1.31-6.99.67-7.92-5.37-9.98l-5.55-1.84c-1.28-1.04-.72-4.02.85-4.53,9.15,1.98,15.47,3.29,21.82,4.48,6.22,1.16,12.59,2.22,17.04,2.78.89.97.33,3.95-.85,4.53l-3.08-.04c-4.01-.08-5.03,1.07-6.33,8.07l-1.35,7.25Z"/>
    <path class="cls-4" d="M973.9,201.65c-5.2,11.1-4.93,12.39.11,15.62l4.49,2.83c.5,1.11-.79,3.85-1.96,4.18-7.64-3.87-13.43-6.73-19.16-9.41s-11.75-5.36-18.9-8.42c-.62-1.16.67-3.91,1.96-4.18l4.34,1.3c5.76,1.68,6.87,1.18,12.06-9.92l2.79-5.97c2.79-5.97,3.57-7.93,3.43-15.71l-.45-36c-.1-6.01-.28-8.42-4.12-11.09l-3.72-2.62c-.63-1.46.83-4.26,2.43-3.95,5.26,2.75,9.62,4.94,16.65,8.24,7.28,3.41,13.42,6.14,17.59,7.8.85.98-.2,3.84-1.72,4.29l-4.5-.95c-2.37-.53-3.31-.39-3.37-.27-.45.95-.69,3.02-.81,9.8l-.37,15.39c-.05,4.78.12,11.55.15,15.2,6.2-4.23,13.53-10.25,19.48-14.88,8.26-6.46,11.37-9.37,12.04-10.8.33-.72-1.24-2.33-3.88-4.14l-2.04-1.54c-.67-1.04.6-4.08,2.08-4.12,4.66,2.47,8.9,4.6,13.19,6.62,4.53,2.12,8.29,3.74,11.86,5.12,1.21,1.15-.13,4.01-1.48,4.4l-3.38-.86c-2.32-.65-5.45-1.1-7.54-.04-2.85,1.43-7.73,4.38-18.31,12.08l-13.89,10.08c-5.73,4.15-7.96,6.75-11.15,13.55l-3.91,8.35Z"/>
    <path class="cls-4" d="M1093.68,245.86c-16,23.85-41.59,27.46-65.12,11.68-21.99-14.76-28.27-39.92-12.93-62.78,14.54-21.66,41.96-27.54,64.83-12.19,22.76,15.27,28.12,41.08,13.22,63.29ZM1076.2,187.01c-13.46-9.03-29.12-1.29-41.38,16.98-8.96,13.35-18.64,37.95-.81,49.91,14.33,9.62,29.31-.64,41.2-18.37,12.55-18.71,14.55-39.42.99-48.52Z"/>
    <path class="cls-4" d="M1128.41,244.35c8.48-8.84,8.46-9.96,5-14.92l-1.92-2.76c-.21-1.3,1.7-3.48,3.29-3.05,4.38,4.57,9.04,9.22,13.61,13.6,4.66,4.47,9.41,8.84,14.16,13.02.21,1.3-1.79,3.39-3.1,3.23l-2.65-1.81c-5.01-3.34-6.31-3.13-14.79,5.71l-21.06,21.97c-10.67,11.13-21.2,24.58-6.74,38.44,12.17,11.67,26.09,4.58,38.59-8.45l11.03-11.51c7.39-7.7,13.94-15.29,15.26-18.77,1.06-2.82-.49-5.39-2.6-8.33l-2.11-2.94c-.03-1.49,1.98-3.21,3.1-3.23,4.95,5.11,8.57,8.77,12.47,12.5,3.52,3.37,7.13,6.65,10.92,9.92.02,1.12-1.61,3.2-3.1,3.23l-2.08-1.26c-3.02-1.8-5.37-2.96-8.14-1.79-3.42,1.47-10.73,8.33-18.11,16.03l-10.21,10.65c-8.57,8.94-17.27,16.3-28.06,17.08-8.47.46-17.69-3.82-25.39-11.21-7.23-6.93-12.6-14.27-13.72-23.38-1.02-8.83,3.63-17.87,13.57-28.24l22.8-23.77Z"/>
    <path class="cls-4" d="M1220.82,329.35c2.52-1.91,3.04-2.31,1.13-4.83l-4.94-6.51c-5.81-7.66-11.68-6.68-21.73-4.02-1.58-.78-2.89-2.93-2-4.6,8.91-3.29,15.82-7.7,20.47-10.07.63.18,1.24.55,1.64,1.07.4.52.69,1.13.7,1.79-1.39,1.88-1.57,2.51,4.49,10.49l29.62,39.04c5.26,6.93,6.56,8.42,9.48,7.69.53.26.87.5,1.35,1.13.48.63.62,1.68.46,2.13-4.36,1.66-13.42,7.37-19.25,12.12-1.34.19-3.7-2.48-3.26-3.64,5.36-6.88,9.18-12.09,3.21-19.96l-4.78-6.3c-1.91-2.52-2.46-2.59-5.19-.52l-46.28,35.12c-9.76,7.41-10.12,8.67-7.17,13.87l2.66,4.6c-.07,1.21-2.49,3.04-3.67,2.79-4.97-6.98-8.84-12.31-12.43-17.03-3.82-5.04-8.07-10.42-13.85-17.6,0-1.32,2.41-3.15,3.67-2.79l4.11,4.32c4.11,4.32,5.53,4.24,15.29-3.17l46.28-35.12Z"/>
    <path class="cls-4" d="M1244.9,429.31c-2.51-4.78-2.69-4.84-5.96-3.12l-16.8,8.82c-10.85,5.7-11.53,6.95-9.47,12.57l1.49,3.98c-.21,1.3-2.89,2.71-4.08,2.14-3.26-6.77-6.21-12.66-8.96-17.91-2.94-5.6-6.12-11.37-9.48-17.19.21-1.3,2.89-2.71,4.08-2.14l1.82,2.62c3.52,5,4.99,4.97,15.84-.73l43.39-22.79c10.85-5.7,11.71-6.89,9.59-12.63l-1.12-2.98c.21-1.3,2.89-2.71,4.08-2.14,2.77,5.84,5.84,11.96,8.78,17.56,2.76,5.25,5.94,11.02,8.87,16.03-.21,1.3-2.89,2.71-4.08,2.14l-1.64-2.27c-3.33-4.65-4.87-4.74-15.72.96l-13.53,7.11c-3.38,1.78-3.44,1.95-.93,6.74l12.74,24.26c2.57,4.9,2.69,4.84,6.07,3.06l13.53-7.11c10.85-5.7,11.47-6.77,9.47-12.56l-1.19-3.39c.21-1.3,2.89-2.71,4.08-2.15,3.14,6.54,6.02,12.31,8.96,17.91,3,5.72,5.94,11.02,8.99,16.26-.21,1.3-2.89,2.71-4.08,2.14l-1.58-2.15c-3.63-4.94-5.05-5.08-15.9.61l-43.39,22.79c-10.85,5.7-11.3,6.83-9.41,12.68l1,3.04c-.21,1.3-2.89,2.71-4.08,2.14-2.83-5.95-5.71-11.73-8.53-17.1-3.06-5.83-6.18-11.49-9.36-16.96.21-1.3,2.89-2.71,4.08-2.14l1.7,2.38c3.52,5,4.99,4.97,15.84-.73l16.8-8.82c3.27-1.72,3.38-1.78.81-6.68l-12.74-24.26Z"/>
  </g>
  <g>
    <path class="cls-5" d="M879.71,793.57c1.93,3.81,2.52,8.27,2.52,12.59-.04,24.99-17.4,46.06-32.69,65.83-12.74,16.46-25.99,34.59-45.83,40.86-15.81,5-33.73,1.17-47.25-8.44-27.66-19.69-31.56-55.66-35.79-86.7-4.93-36.17-6.46-72.7-6.8-109.17-.23-24.85-.18-49.71.29-74.56.45-23.78-.45-48.41,6.08-71.5,5.73-20.24,17.98-39.61,36.79-49.04,15.2-7.61,33.3-8.01,49.77-3.83,16.48,4.18,31.57,12.62,45.7,22.06,20.42,13.65,39.58,29.93,52.83,50.61,13.25,20.68,20.12,46.25,14.86,70.24-2.68,12.23-9.81,24.94-21.9,28.2.06-11.89-.31-23.77-1.1-35.63-.14-2.14-.36-4.43-1.74-6.07-1.49-1.77-3.94-2.31-5.95-3.46-3.78-2.17-5.82-6.36-7.81-10.25-10.1-19.77-24.33-37.4-41.4-51.59-8.12-6.75-17.36-14.13-27.29-17.9-11.86-4.5-25.94-8.35-38.62-5.42-13.62,3.15-19.68,17.75-22.18,30.38-6.94,35.01-4.49,71-3.06,106.4,1.47,36.43,2.89,72.84,5.42,109.23.1,1.5.21,3,.32,4.51.94,13.17,2.02,26.48,5.56,39.25,2.97,10.72,7.75,26.25,19.97,29.36,7.55,1.92,14.65-1.79,20.71-5.95,24.63-16.92,37.81-45.59,55.18-69.9,2.21-3.09,4.7-6.28,8.28-7.54,4.93-1.74,10.63.9,13.7,5.13.54.74,1.01,1.52,1.42,2.33ZM859.92,806.9c0,.59-.03,1.19,0,1.78.03.6.28,1.15.63,1.64.71.99,1.59,1.75,2.78,2.1.34.1.68.2,1.02.3,1.82.55,3.51.1,5.15-.69.31-.15.58-.42.78-.71.34-.48.71-.98.89-1.53.33-1.01.57-2.05.76-3.1.08-.45.04-.96-.09-1.41-.29-1.03-.73-2.01-1.4-2.86-.97-1.24-2.14-2.21-3.72-2.59-.23-.05-.47-.1-.7-.07-1.43.18-2.78.58-3.99,1.4-.49.34-.91.76-1.22,1.27-.5.82-.82,1.72-.9,2.68-.05.59,0,1.18,0,1.78ZM729.28,649.95c.03.22.04.45.09.66.05.25.21.41.42.42.06,0,.16-.15.2-.25.18-.42.27-.86.2-1.32-.03-.25-.15-.44-.37-.51-.21-.06-.39.07-.46.32-.05.22-.06.44-.09.66ZM747.17,649.8c-.08-.04-.18-.13-.23-.11-.1.04-.25.18-.23.21.14.28.31.32.46.12.04-.05,0-.15,0-.23Z"/>
    <path class="cls-1" d="M879.51,793.67c-.57-.75-1.2-1.47-1.47-2.4-.21-.71-.66-1.23-1.17-1.74-.84-.83-1.72-1.62-2.7-2.3-1.29-.89-2.71-1.46-4.29-1.53-.94-.04-1.89-.04-2.83.02-.95.06-1.89.16-2.83.07.06-.23.06-.49.19-.67.7-.99,1.15-2.07,1.47-3.24.81-2.91,1.81-5.6,2.46-8.58.72-3.3,1.43-6.61,2.15-9.91,1.28-5.9,2.59-11.8,3.83-17.7,1.17-5.58,3.02-10.88,4.66-16.37.15-.51.3-1.01.45-1.52.9-3.03,1.81-6.06,2.58-9.12.62-2.45.55-4.91,1.31-7.36,1.31-.16,2.41-.93,3.65-1.28.19-.05.34-.31.48-.49.31-.4.05-1.01-.45-1.07-.23-.03-.52-.09-.69.02-.75.45-1.55.5-2.38.43,0-.35-.04-.71,0-1.06.17-1.18.46-2.33.79-3.47.76-2.62,1.7-5.19,2.14-7.9.7-1.66.75-3.47,1.16-5.2.53-2.2.64-4.47,1.17-6.67.05-.23.05-.47.06-.71.12-7.63-.27-15.25-.75-22.86-.24-3.75-.51-7.5-.75-11.25-.12-1.87-.25-3.74-.35-5.61-.11-2.12.3-6.69,2.53-7.69.94-.42,2.04-.25,2.97.18.91.42,1.71,1.07,2.3,1.88,2.04,2.8,1.24,6.65,1.28,10.12.04,3.07.81,6.05,1.26,9.07s.33,6.13.38,9.22c0,.48-.01.97.1,1.42.68,2.72.38,5.44.12,8.17-.11,1.19-.21,2.37-.26,3.56-.02.34.12.7.19,1.05-.13,2.5-.4,4.99-.44,7.5-.01.71-.03,1.42,0,2.14.09,1.91.13,3.82-.37,5.69-1.51,5.71-2.32,11.83-3.47,17.68-1.68,8.63-3.4,17.24-5.04,25.88-2.79,14.67-5.38,29.38-8.12,44.04-.46,2.46-.79,4.95-.88,7.45-.03.72-.1,1.43-.45,2.08Z"/>
    <path class="cls-1" d="M824.27,839.41c-2.43-1.02-4.63-2.47-6.9-3.78-4.14-2.37-8.26-4.81-12.37-7.22-4.01-2.36-8.02-4.74-12.03-7.1-1.65-.97-3.33-1.88-4.98-2.85-10.31-6.03-20.61-12.06-30.92-18.09-.52-.3-1.04-.58-1.56-.87-.18-1.54-.65-3.01-1.11-4.49-.28-.91-.57-1.81-.47-2.78.04-.37-.13-.7-.27-1.02-.33-.78-.51-1.59-.47-2.43.08-1.78-.04-3.56-.1-5.34-.03-.83.04-1.66.06-2.49.95.23,1.69.88,2.52,1.35,2.5,1.4,4.98,2.85,7.46,4.29.72.42,1.44.86,2.1,1.37.67.51,1.4.89,2.17,1.24.76.34,1.49.75,2.21,1.18,3.3,1.93,6.64,3.8,9.89,5.82,4.06,2.53,8.24,4.85,12.3,7.37,1.32.82,2.72,1.5,4.07,2.28,3,1.74,5.99,3.49,8.98,5.24,4.43,2.6,8.86,5.21,13.29,7.82,3.4,2,6.78,4.03,10.19,6.02,1.24.72,2.51,1.39,3.77,2.06.34.18.7.06,1-.14.4-.26.77-.56,1.15-.85-.03.23-.07.47-.07.7,0,.49-.14.94-.4,1.34-.45.69-.92,1.37-1.43,2.03-.36.47-.71.94-.95,1.48-.29.66-.74,1.2-1.24,1.71-1.32,1.35-2.64,2.7-3.95,4.06-.65.68-1.29,1.38-1.93,2.07Z"/>
    <path class="cls-1" d="M859.92,806.9c0-.59-.04-1.19,0-1.78.08-.96.4-1.85.9-2.68.31-.51.73-.93,1.22-1.27,1.2-.83,2.56-1.22,3.99-1.4.23-.03.47.02.7.07,1.57.38,2.74,1.35,3.72,2.59.67.85,1.11,1.83,1.4,2.86.13.44.17.96.09,1.41-.19,1.05-.43,2.09-.76,3.1-.18.55-.55,1.05-.89,1.53-.2.28-.48.56-.78.71-1.63.79-3.33,1.24-5.15.69-.34-.1-.68-.2-1.02-.3-1.19-.35-2.07-1.11-2.78-2.1-.35-.49-.6-1.03-.63-1.64-.03-.59,0-1.18,0-1.78Z"/>
    <path class="cls-2" d="M897.11,652.4c-.43-.26-.78-.67-.71-1.13.27-1.99.13-3.99.35-5.98.04-.35.06-.7.09-1.05,1.08,1.81,1.24,3.79,1.09,5.83-.03.48-.18.93-.38,1.36-.15.32-.29.65-.43.97Z"/>
    <path class="cls-5" d="M814.13,556.66s-.09-.02-.09-.02c-.15-.46-.41-.86-.79-1.15-.31-.24-.44-.55-.49-.9-.05-.37.09-.69.38-.92.25-.2.68-.19,1.01.03.2.13.35.37.25.59-.23.55-.42,1.08-.18,1.69.07.19-.05.46-.08.69Z"/>
    <path class="cls-2" d="M729.28,649.95c.03-.22.03-.45.09-.66.06-.25.24-.38.46-.32.22.06.34.26.37.51.06.46-.03.9-.2,1.32-.04.1-.14.26-.2.25-.21-.01-.37-.18-.42-.42-.05-.22-.06-.44-.09-.66Z"/>
    <path class="cls-1" d="M863.38,786.25c.12-.29.36-.48.65-.58.07-.03.18.06.28.1-.19.38-.55.44-.92.48Z"/>
    <path class="cls-2" d="M747.17,649.8c0,.08.03.18,0,.23-.15.2-.32.16-.46-.12-.01-.03.14-.18.23-.21.06-.02.15.07.23.11Z"/>
    <path class="cls-5" d="M888.59,672.22c-.1-.06-.23-.09-.31-.17-1.15-1.22-2.1-2.57-2.78-4.11-.29-.65-.6-1.29-.91-1.94-.82-1.73-1.39-3.53-1.64-5.44-.12-.94-.36-1.87-.55-2.8-.27-1.35.02-2.61.74-3.75.63-1.01,1.26-2.02,2.28-2.71.29-.2.5-.51.75-.76.49-.48,1.06-.43,1.64-.2-.16,1.89-.11,3.78.25,5.64.25,1.28.34,2.56.34,3.86,0,2.59-.02,5.19.19,7.78.12,1.52.15,3.06-.01,4.59Z"/>
    <path class="cls-1" d="M883.31,711.33c-.08-.31-.12-.63,0-.93.2-.49.42-.97.62-1.46.83.06,1.63.01,2.38-.43.17-.1.46-.04.69-.02.5.06.76.67.45,1.07-.14.18-.29.44-.48.49-1.25.35-2.34,1.12-3.65,1.28Z"/>
    <path class="cls-1" d="M882.15,717.79c-.27-.56-.24-1.09.19-1.57.35.17.47.46.39.82-.07.33-.24.61-.58.75Z"/>
    <g>
      <path class="cls-1" d="M495.52,791.74c.01-.49.02-.98.03-1.47.36-17.11-.53-34.8-7.88-50.26-17.66-37.18-65.48-49.53-90.48-82.24-12.37-16.18-18.34-36.46-20.83-56.68-2.14-17.33-1.08-35.09,10.42-49.23,6.5-8,16.39-13.63,26.7-13.4,29.21.66,34.32,46.82,34.38,68.42.03,10.79,4.28,15.63,14.59,11.16,2.14-.93,4.86-1.35,6.63.17.38.32.72.74,1.2.86.57.15,1.15-.15,1.69-.39,4.54-1.98,9.01,1.62,13.57.08,7.47-2.54,5.42-13.31,4.88-19.2-1.02-11.16-2.46-22.15-5.23-33.03-3.95-15.55-10.12-30.62-18.82-44.13-6.23-9.67-13.66-20.26-24.92-24.38-10.66-3.9-24.79-2.5-35.8-.89-24.15,3.54-48.16,15.27-61.28,36.59-10.41,16.91-13.76,38.99-12.27,58.61,1.66,21.9,4.08,41.51,14.14,61.56,9.54,19,22.99,40,39.59,53.43,16.39,13.26,35.93,22.25,51.36,36.75,5.59,5.25,10.68,11.4,12.88,18.75,3.36,11.23,1.83,25.08,1.73,36.71-.13,15.99-1.05,35.17-12.05,47.85-9.25,10.66-24.98,15.18-38.49,11.06-11.3-3.45-20.53-12.78-24.23-23.96-1.14-3.44-2.85-42.87-4.13-42.83-7.82.21-15.69.68-23.51.55-4.48-.08-12.97-1.71-15.13,3.75-2.51,6.35-1.32,14.54-1.14,21.2.24,8.78.87,17.59,2.73,26.2,3.04,14.03,9.85,27.47,20.74,37.01,19.11,16.75,44.76,26.21,70.23,24.81,10.92-.6,21.97-3.15,31.15-9.1,12.05-7.81,19.86-20.76,25.17-34.1,8.83-22.21,11.78-46.33,12.38-70.23ZM451.9,550.28h0c-.14.12-.28.23-.42.35.14-.12.28-.23.42-.35ZM476.05,589.87c-.05.13-.08.25-.09.38.01-.12.04-.25.09-.38h0ZM464.49,583.34h0s.16.17.16.17c-.06-.06-.16-.17-.16-.17ZM456.94,574.73s0,0,0,0c-.12.06-.24.14-.33.24.1-.1.21-.18.33-.24ZM453.94,585.01l-.19-.21h0s.19.21.19.21h0ZM450.4,564.87c-.3-.16-.64-.24-1.02-.25-.12.01-.23.03-.35.04.12-.01.23-.03.35-.04.38.01.72.1,1.02.25ZM450.95,587.75h0c-.44.03-.88.06-1.32.08.44-.02.88-.05,1.32-.08ZM454.54,602.8c-.02.3-.08.6-.19.88.1-.29.17-.58.19-.88ZM475.39,558.33h0c.16-.01.31-.03.46-.07-.15.04-.31.06-.46.07ZM475.28,558.88c.02-.17.03-.34.06-.5h0c-.03.16-.04.33-.06.5ZM448.63,546.32h0c.13-.12.25-.24.37-.36h0c-.12.12-.25.24-.37.36ZM438.12,535.95c.12-.01.24-.01.35-.02-.12,0-.24.01-.35.02-.33-.02-.56-.07-.7-.19.14.12.37.17.7.19ZM409.32,514.25c.08.35.16.7.22,1.05-.06-.35-.15-.7-.22-1.05-.01-.09-.02-.18-.03-.27,0,.09.02.18.03.27ZM388.09,538.76h0c-.15.12-.3.25-.45.38.14-.13.29-.26.45-.38ZM370.89,678.02s-.06-.02-.08-.04c.02.02.05.03.08.04ZM363.41,581.4c-.09-.14-.15-.33-.25-.46.1.12.16.31.25.46,0,.11.06.24.02.34.04-.1-.01-.23-.02-.34ZM371.3,652.57c.06,0,.12-.01.19-.01-.06,0-.13.02-.19.02-.1.05-.21.1-.32.15.1-.05.22-.09.32-.15ZM367.03,560.49c-.05-.34-.12-.68-.15-1.03.04.34.1.68.15,1.03h0ZM371.21,677.37h0c.1.1.2.2.3.3-.1-.1-.2-.2-.3-.3ZM367,560.51h0c-.54-.21-1.06-.45-1.61-.63.55.18,1.07.42,1.61.63ZM354.48,637.85s-.08-.09-.13-.12c.05.04.09.08.13.12ZM393.81,700.6s-.06.1-.05.19c0-.09.02-.15.05-.19ZM415.69,690.97s.06.06.12.12l-.12-.12ZM416.25,692.2c.07.09.16.17.28.23-.12-.06-.21-.14-.28-.23ZM461.8,855.3c.68.06,1.36.06,2.04.1h0c-.68-.04-1.37-.04-2.04-.1ZM482.49,751.29c.04-.18.05-.36.05-.54,0,.17-.01.35-.05.54ZM481.57,751.47c.13.1.23.17.31.21.09.04.16.06.22.05.07-.01.12-.05.19-.13-.06.07-.12.11-.19.13-.06.01-.14,0-.22-.05-.09-.04-.19-.11-.31-.21h0ZM479.15,747.8c-.07,0-.14.01-.2.01.07,0,.13,0,.2-.01ZM478.77,749.15c.07-.1.14-.21.2-.31-.06.11-.13.21-.2.31-.35.07-.71.1-1.04.23.33-.13.69-.15,1.04-.23ZM488.33,800.98c.06-.22.08-.44.12-.66-.11-.09-.2-.19-.29-.29h0c.09.1.19.2.29.29.46-.04.92-.07,1.38-.14-.46.06-.92.09-1.38.14-.04.22-.06.45-.12.66ZM482.13,749.24h0c.16-.02.33-.03.5-.04-.17.01-.33.02-.5.04ZM480.62,745.93s0,0,0,0c-.16-.69,0-1.24.41-1.69-.41.44-.58,1-.41,1.69Z"/>
      <path class="cls-1" d="M710.77,512.64c-3.9-5.33-16.82-2.77-22.51-3.05-4.78-.23-12.07-1.44-15.61,2.52-3.35,3.75-2.12,10.74-2.69,15.33-1.06,8.57-2.48,17.11-4.42,25.53-3.91,17.03-9.95,33.67-19.11,48.6-4.35,7.1-9.47,13.87-16.08,18.92-10.3,7.88-22.53,9.81-34.37,4.32-7.83-3.63-14.29-9.69-19.86-16.29-11.76-13.96-19.9-30.53-25.76-47.73-2.97-8.72-5.38-17.63-7.45-26.61-1.63-7.06.85-26.4-10.87-24.36-6.56,1.14-34.95,1.44-33.12,11.13,5.66,30.02,13.93,60.59,28.34,87.71,12.62,23.76,32.68,47.65,59.02,56.38.56.18,1.15.24,1.75.2.24.3.52.53.89.64.02.46.14.94-.09,1.38-1.74,3.31-.6,9.51-.65,13.08-.08,6.4-.16,12.81-.23,19.21-.15,12.43-.3,24.86-.45,37.29,0,27.87-.49,55.75-.91,83.62-.21,14.24-.37,28.48-.53,42.71-.08,7.12-.14,14.24-.24,21.36-.08,5.66-1.29,11.84.69,17.28.13.29.43.57.72.73,3.89,2.05,9.85.06,13.98-.03,6.67-.13,13.31.96,19.98.3,7.68-.77,7.93-11.31,7.89-17.05-.06-9.02-.99-17.94-.99-27,0-38.66,2.14-77.23,2.11-115.91-.01-13.85-.09-27.7-.11-41.55,0-3.5-1.81-36.13.23-36.78.23-.07.47-.15.7-.22.35.03.71.15,1.04.08,16.69-3.54,30.94-16.85,41.27-30,9.77-12.43,17.01-26.69,22.71-41.44,9.39-24.26,14.77-50.07,15.85-76.07.07-1.78-.34-3.16-1.12-4.23ZM510.49,530.21h0c0,.06,0,.12,0,.18,0-.06,0-.12,0-.18ZM596.44,811.53s-.03.09-.05.14c.02-.05.03-.09.05-.14-.03-.11-.05-.21-.08-.32.03.11.05.22.08.32Z"/>
      <path class="cls-1" d="M1141.22,706.76c-.15-24.58-2.5-48.97-6.83-72.16-7.27-38.9-23.07-76.08-49.87-105.59-11.99-13.2-29.47-21.69-47.46-22.08-20.36-.45-37.55,9.36-51.04,23.69-40.21,42.69-49.93,105.51-51.8,161.86-1.22,36.82,2.6,73.79,11.57,109.53,6.65,26.51,17.51,53.95,34.36,76.02,10.42,13.64,24.11,25.28,40.42,30.64,51.4,16.91,85.56-36.55,100.43-77.25,14.11-38.63,20.49-81.94,20.23-124.67ZM957.71,734.17c0-.06,0-.12,0-.18,0,.06,0,.12,0,.18,0,.03,0,.07.02.1-.01-.04-.02-.07-.02-.1ZM969.09,686.76h0s.03-.07.04-.1c-.01.03-.03.07-.04.1ZM1125.02,714.56c.11-.03.22-.05.33-.08-.11.03-.22.05-.33.08-.13,0-.25-.02-.35-.08.1.05.22.08.35.08ZM1117.69,713.42c.08.21.05.47.07.7-.05.23-.09.46-.16.69.06-.23.1-.46.16-.69-.02-.23.01-.49-.07-.7ZM1059.51,540.21s.05.1.08.16c-.03-.06-.05-.11-.08-.16h0ZM1043.51,556.05c-.16-.03-.32-.05-.49-.05.17,0,.33.02.49.05ZM1023.02,559.12c-.18.04-.33.11-.46.21.13-.1.28-.17.46-.21ZM989.97,618.82s0,0,0,0c0,0,0,0,0,0ZM994.26,605.39s0,.03,0,.05c0-.02,0-.03,0-.05ZM997.03,570.53h0c-.4-.09-.81-.15-1.22-.14.4,0,.81.05,1.22.14ZM997.97,596.57c-.02-.07-.04-.14-.06-.22.02.07.04.15.06.22ZM991.46,538.99c-.05.11-.07.24-.07.36.02.24.02.47.05.71-.03-.23-.04-.47-.05-.71,0-.12.03-.25.07-.36ZM981.37,660.22c-.07-.25-.11-.51-.11-.77,0,.26.04.51.11.77ZM1028.73,861.3c.1.15.22.27.35.35.14.09.29.14.47.17-.18-.03-.33-.08-.47-.17-.14-.09-.25-.2-.35-.35ZM1072.9,830.44c.06-.15.09-.32.09-.5,0,.18-.03.35-.09.5ZM1072.91,829.37c-3.22,6.64-6.99,13.01-11.5,18.95-14.05,18.53-36.09,14.94-49.2-2.81-12.34-16.71-18.5-37.53-23.49-57.42-16.36-65.29-17.93-140.66,14.78-201.69,6.48-12.08,15.77-31.07,31.71-31.53,16.65-.48,27.22,18.91,33.82,31.59,15.08,29,20.82,61.47,24.07,93.71,3.54,35.06,2.32,70.69-5.65,105.09-3.48,15.04-7.79,30.18-14.53,44.11ZM1008.66,574.79c-.05.13-.07.29-.08.48.01-.2.03-.35.08-.48ZM1134.48,722.77c.35-.04.7-.07,1.05-.11h0c-.35.03-.7.06-1.05.11Z"/>
    </g>
  </g>
  <path class="cls-3" d="M896.39,143.22c17.44,4.94,22.82,7.18,39.59,13.62"/>
  <path class="cls-3" d="M117.33,699.84c2.14-65.03,14.57-127.45,35.72-185.69"/>
  <path class="cls-3" d="M536.73,1294.64c-12.82-4.08-25.45-8.59-37.88-13.49"/>
  <path class="cls-3" d="M1281.74,500.35c25.28,64.6,39.74,134.62,41.14,207.84"/>
</svg>