<?xml version="1.0" encoding="UTF-8"?>
<svg id="Layer_1" data-name="Layer 1" xmlns="http://www.w3.org/2000/svg" viewBox="0 0 1152 1152">
  <defs>
    <style>
      .cls-1 {
        fill: #474747;
      }

      .cls-2 {
        fill: #fefefe;
      }

      .cls-3 {
        fill: #231f20;
      }

      .cls-4 {
        fill: #f48030;
      }

      .cls-5 {
        fill: none;
        stroke: #f48030;
        stroke-miterlimit: 10;
        stroke-width: 10px;
      }
    </style>
  </defs>
  <g>
    <path class="cls-4" d="M783.3,678.03c2.58,5.09,3.37,11.07,3.36,16.83-.05,33.42-23.27,61.61-43.72,88.04-17.03,22.02-34.76,46.26-61.3,54.65-21.15,6.69-45.12,1.57-63.19-11.29-37-26.33-42.22-74.44-47.87-115.96-6.59-48.37-8.64-97.23-9.09-146.01-.3-33.24-.24-66.49.39-99.72.6-31.8-.61-64.74,8.13-95.62,7.66-27.07,24.05-52.98,49.2-65.59,20.33-10.18,44.53-10.71,66.57-5.13,22.04,5.59,42.22,16.87,61.12,29.51,27.31,18.26,52.93,40.03,70.66,67.69,17.72,27.66,26.91,61.86,19.88,93.95-3.59,16.36-13.12,33.35-29.29,37.71.08-15.9-.41-31.8-1.47-47.66-.19-2.86-.48-5.93-2.33-8.12-1.99-2.36-5.27-3.09-7.95-4.63-5.06-2.9-7.79-8.51-10.44-13.7-13.51-26.44-32.53-50.02-55.36-69-10.86-9.03-23.22-18.9-36.5-23.95-15.86-6.02-34.69-11.17-51.65-7.24-18.22,4.21-26.32,23.74-29.67,40.63-9.29,46.82-6.01,94.96-4.1,142.3,1.97,48.72,3.87,97.42,7.25,146.08.14,2.01.28,4.02.42,6.03,1.26,17.61,2.7,35.41,7.44,52.49,3.98,14.34,10.36,35.11,26.71,39.27,10.1,2.57,19.59-2.39,27.7-7.96,32.94-22.63,50.56-60.97,73.8-93.49,2.95-4.13,6.29-8.4,11.08-10.09,6.59-2.33,14.22,1.2,18.32,6.86.72.99,1.35,2.03,1.89,3.11ZM756.84,695.87c0,.79-.03,1.59,0,2.38.05.81.37,1.53.84,2.19.95,1.32,2.13,2.34,3.72,2.81.46.13.91.26,1.37.4,2.43.74,4.7.14,6.89-.92.41-.2.78-.57,1.05-.94.46-.64.95-1.31,1.19-2.04.44-1.35.76-2.75,1.01-4.15.11-.6.05-1.29-.11-1.88-.39-1.38-.98-2.68-1.87-3.82-1.3-1.66-2.87-2.95-4.97-3.46-.3-.07-.63-.13-.94-.09-1.91.24-3.72.77-5.33,1.88-.66.45-1.22,1.02-1.64,1.7-.66,1.1-1.09,2.3-1.2,3.58-.07.79-.01,1.58-.01,2.38ZM582.11,485.95c.04.3.05.6.12.89.07.33.28.55.57.57.09,0,.22-.2.27-.34.24-.56.36-1.15.27-1.76-.05-.33-.2-.59-.5-.68-.29-.08-.53.09-.61.43-.07.29-.08.59-.12.89ZM606.05,485.76c-.1-.05-.23-.17-.31-.14-.13.05-.33.24-.31.28.18.38.42.43.61.16.05-.07,0-.2,0-.31Z"/>
    <path class="cls-1" d="M783.04,678.16c-.77-1-1.6-1.97-1.97-3.2-.28-.95-.89-1.65-1.57-2.33-1.13-1.12-2.3-2.17-3.61-3.08-1.73-1.19-3.62-1.96-5.73-2.05-1.26-.06-2.53-.05-3.79.03-1.26.08-2.52.21-3.79.1.08-.3.08-.66.25-.9.94-1.32,1.54-2.77,1.97-4.33,1.08-3.9,2.42-7.48,3.29-11.48.96-4.42,1.91-8.84,2.87-13.26,1.71-7.89,3.47-15.78,5.13-23.68,1.57-7.47,4.03-14.55,6.23-21.89.2-.68.4-1.35.61-2.03,1.21-4.05,2.42-8.1,3.45-12.2.83-3.28.73-6.56,1.75-9.84,1.75-.21,3.22-1.25,4.88-1.71.26-.07.46-.41.65-.65.41-.53.07-1.36-.6-1.43-.31-.03-.69-.12-.92.02-1,.6-2.07.67-3.18.58,0-.47-.06-.96,0-1.42.23-1.57.62-3.11,1.06-4.64,1.02-3.5,2.27-6.94,2.86-10.56.94-2.22,1-4.64,1.55-6.95.71-2.95.86-5.98,1.57-8.92.07-.31.07-.63.08-.95.16-10.2-.35-20.39-1.01-30.57-.32-5.01-.68-10.03-1.01-15.04-.16-2.5-.34-5-.46-7.5-.15-2.83.4-8.95,3.38-10.28,1.25-.56,2.73-.33,3.98.24,1.22.56,2.29,1.43,3.08,2.52,2.72,3.75,1.65,8.9,1.71,13.53.05,4.11,1.08,8.09,1.69,12.13.61,4.09.45,8.2.51,12.33,0,.64-.02,1.3.13,1.9.9,3.63.5,7.28.16,10.93-.15,1.59-.28,3.18-.35,4.77-.02.46.16.93.25,1.4-.17,3.34-.53,6.68-.59,10.03-.02.95-.04,1.9,0,2.86.12,2.55.17,5.11-.49,7.61-2.02,7.63-3.11,15.82-4.63,23.64-2.25,11.54-4.55,23.06-6.75,34.61-3.73,19.61-7.19,39.29-10.87,58.9-.62,3.29-1.05,6.61-1.18,9.97-.04.96-.13,1.91-.6,2.78Z"/>
    <path class="cls-1" d="M709.15,739.34c-3.25-1.36-6.19-3.31-9.23-5.05-5.54-3.18-11.04-6.43-16.55-9.66-5.37-3.15-10.72-6.34-16.09-9.49-2.2-1.29-4.45-2.52-6.65-3.81-13.79-8.06-27.57-16.13-41.35-24.2-.69-.4-1.4-.77-2.09-1.16-.24-2.06-.87-4.03-1.48-6-.38-1.22-.77-2.42-.63-3.71.05-.5-.17-.93-.36-1.37-.45-1.04-.68-2.13-.64-3.25.1-2.38-.06-4.76-.13-7.14-.03-1.11.05-2.22.08-3.33,1.27.31,2.26,1.18,3.37,1.8,3.35,1.87,6.66,3.81,9.97,5.74.96.56,1.92,1.16,2.81,1.83.9.69,1.87,1.19,2.9,1.65,1.02.46,2,1.01,2.96,1.57,4.42,2.58,8.89,5.08,13.23,7.78,5.43,3.38,11.02,6.48,16.45,9.86,1.76,1.1,3.64,2,5.44,3.04,4.01,2.32,8.01,4.67,12.01,7.01,5.93,3.48,11.85,6.97,17.77,10.46,4.54,2.68,9.07,5.39,13.62,8.06,1.65.97,3.35,1.86,5.05,2.76.45.24.94.08,1.34-.19.53-.35,1.03-.75,1.54-1.14-.03.31-.09.63-.1.94,0,.65-.18,1.26-.53,1.79-.6.92-1.23,1.84-1.91,2.71-.49.63-.95,1.26-1.27,1.98-.39.88-1,1.6-1.66,2.28-1.76,1.81-3.53,3.61-5.28,5.43-.88.91-1.72,1.84-2.58,2.77Z"/>
    <path class="cls-1" d="M756.84,695.87c0-.79-.05-1.59.01-2.38.11-1.28.54-2.48,1.2-3.58.41-.68.97-1.25,1.64-1.7,1.61-1.1,3.42-1.63,5.33-1.88.3-.04.63.02.94.09,2.11.51,3.67,1.8,4.97,3.46.89,1.14,1.48,2.44,1.87,3.82.17.59.23,1.28.11,1.88-.26,1.4-.58,2.79-1.01,4.15-.24.73-.73,1.4-1.19,2.04-.27.38-.64.75-1.05.94-2.19,1.06-4.45,1.66-6.89.92-.45-.14-.91-.27-1.37-.4-1.59-.47-2.77-1.49-3.72-2.81-.47-.66-.8-1.38-.84-2.19-.04-.79,0-1.58,0-2.38Z"/>
    <path class="cls-2" d="M806.58,489.23c-.58-.34-1.04-.89-.96-1.51.36-2.66.17-5.34.46-7.99.05-.47.08-.94.12-1.41,1.45,2.42,1.65,5.07,1.45,7.8-.05.64-.24,1.24-.51,1.82-.2.43-.38.87-.57,1.3Z"/>
    <path class="cls-4" d="M695.59,361.19s-.13-.03-.12-.03c-.2-.62-.55-1.15-1.06-1.54-.41-.32-.59-.74-.66-1.21-.07-.49.11-.92.51-1.23.34-.27.91-.25,1.35.03.27.18.46.49.34.79-.31.74-.56,1.44-.24,2.26.1.26-.07.61-.11.92Z"/>
    <path class="cls-2" d="M582.11,485.95c.04-.3.04-.6.12-.89.08-.34.32-.51.61-.43.3.08.45.35.5.68.09.61-.04,1.2-.27,1.76-.06.13-.19.34-.27.34-.28-.02-.49-.24-.57-.57-.07-.29-.08-.59-.12-.89Z"/>
    <path class="cls-1" d="M761.47,668.24c.17-.39.48-.64.86-.78.09-.03.24.09.37.13-.26.51-.74.59-1.23.64Z"/>
    <path class="cls-2" d="M606.05,485.76c0,.11.04.24,0,.31-.2.27-.43.21-.61-.16-.02-.04.18-.24.31-.28.08-.03.21.09.31.14Z"/>
    <path class="cls-4" d="M795.19,515.74c-.14-.08-.31-.12-.41-.23-1.54-1.63-2.81-3.44-3.71-5.5-.38-.87-.81-1.73-1.21-2.59-1.09-2.31-1.86-4.72-2.19-7.27-.16-1.26-.49-2.5-.73-3.74-.36-1.81.03-3.48.98-5.02.84-1.35,1.68-2.7,3.04-3.62.39-.26.67-.68,1.01-1.01.66-.65,1.42-.58,2.2-.27-.22,2.53-.15,5.06.34,7.54.34,1.72.46,3.43.46,5.17,0,3.47-.02,6.94.26,10.4.16,2.04.2,4.1-.01,6.14Z"/>
    <path class="cls-1" d="M788.12,568.04c-.1-.42-.16-.84,0-1.25.26-.66.56-1.3.84-1.95,1.11.09,2.18.02,3.18-.58.23-.14.61-.05.92-.02.67.07,1.01.9.6,1.43-.19.24-.39.58-.65.65-1.67.46-3.13,1.5-4.88,1.71Z"/>
    <path class="cls-1" d="M786.57,576.69c-.37-.75-.32-1.45.25-2.09.47.22.63.62.52,1.09-.1.44-.33.82-.78,1Z"/>
    <g>
      <path class="cls-1" d="M269.48,675.59c.02-.65.03-1.31.05-1.96.48-22.89-.71-46.54-10.53-67.22-23.61-49.73-87.58-66.25-121.01-109.99-16.54-21.64-24.52-48.77-27.86-75.8-2.86-23.18-1.44-46.93,13.93-65.83,8.7-10.7,21.92-18.23,35.71-17.92,39.06.88,45.9,62.62,45.97,91.51.04,14.43,5.73,20.9,19.52,14.92,2.86-1.24,6.5-1.81,8.86.22.5.43.96.98,1.6,1.15.76.2,1.54-.2,2.26-.52,6.08-2.65,12.05,2.17,18.15.1,9.99-3.39,7.25-17.8,6.53-25.68-1.36-14.92-3.29-29.62-6.99-44.17-5.29-20.8-13.53-40.95-25.18-59.02-8.33-12.93-18.27-27.1-33.33-32.6-14.26-5.21-33.16-3.35-47.88-1.19-32.3,4.73-64.41,20.43-81.96,48.93-13.92,22.62-18.4,52.15-16.41,78.38,2.22,29.29,5.45,55.52,18.91,82.33,12.75,25.41,30.74,53.49,52.94,71.45,21.92,17.74,48.05,29.76,68.69,49.16,7.48,7.03,14.28,15.24,17.23,25.07,4.5,15.02,2.45,33.54,2.32,49.1-.18,21.38-1.41,47.04-16.12,63.99-12.38,14.26-33.41,20.31-51.47,14.8-15.11-4.61-27.46-17.1-32.41-32.04-1.53-4.6-3.81-57.33-5.52-57.29-10.46.28-20.98.91-31.44.73-5.99-.1-17.35-2.29-20.23,5.01-3.35,8.5-1.77,19.44-1.53,28.35.32,11.75,1.16,23.53,3.65,35.04,4.06,18.76,13.18,36.73,27.74,49.5,25.56,22.41,59.87,35.06,93.93,33.18,14.61-.8,29.38-4.21,41.66-12.17,16.11-10.44,26.56-27.76,33.66-45.6,11.82-29.7,15.76-61.96,16.56-93.93ZM211.14,352.66h0c-.19.15-.37.31-.56.46.19-.16.37-.31.56-.46ZM243.44,405.6c-.07.17-.1.34-.12.5.01-.17.05-.33.12-.5h0ZM227.97,396.87h0s.22.23.22.23c-.08-.08-.22-.22-.22-.23ZM217.88,385.35s0,0,0,0c-.17.08-.31.19-.44.32.13-.13.28-.24.44-.32ZM213.87,399.11l-.26-.28h0s.26.28.26.28h0ZM209.14,372.17c-.4-.21-.86-.32-1.36-.34-.15.02-.31.04-.46.05.15-.02.31-.03.46-.05.5.02.96.13,1.36.34ZM209.87,402.77h0c-.59.04-1.17.08-1.76.11.59-.03,1.17-.07,1.76-.11ZM214.68,422.89c-.03.4-.11.8-.25,1.18.14-.38.22-.78.25-1.18ZM242.56,363.42h0c.21-.02.42-.04.62-.09-.2.05-.41.07-.62.09ZM242.41,364.15c.03-.22.04-.45.07-.67h0c-.03.22-.05.45-.07.67ZM206.77,347.36h0c.17-.16.33-.32.5-.48h0c-.16.16-.33.32-.5.48ZM192.71,333.49c.16-.02.32-.02.47-.03-.16.01-.32.02-.47.03-.45-.02-.75-.09-.94-.25.19.16.49.23.94.25ZM154.19,304.46c.1.47.21.93.3,1.4-.08-.47-.2-.93-.3-1.4-.02-.12-.03-.24-.04-.35,0,.12.02.24.04.35ZM125.8,337.25h0c-.2.16-.4.33-.6.51.19-.18.39-.35.6-.51ZM102.8,523.49s-.08-.03-.11-.05c.03.02.06.04.11.05ZM92.8,394.27c-.12-.19-.2-.45-.34-.61.13.16.22.42.34.61.01.15.08.33.03.46.05-.13-.02-.3-.03-.46ZM103.34,489.46c.08,0,.17-.01.25-.02-.08,0-.17.02-.25.02-.13.07-.28.13-.42.2.14-.07.29-.13.42-.2ZM97.63,366.31c-.07-.46-.16-.91-.21-1.37.05.46.13.91.21,1.37h0ZM103.23,522.63h0c.14.13.27.26.41.4-.13-.14-.27-.27-.41-.4ZM97.59,366.34h0c-.72-.29-1.42-.6-2.15-.84.73.24,1.44.56,2.15.84ZM80.85,469.77c-.05-.06-.11-.11-.17-.16.06.05.12.1.17.16ZM133.45,553.69c-.05.05-.08.13-.07.25,0-.12.02-.2.07-.25ZM162.72,540.82s.08.08.16.16l-.16-.16ZM163.46,542.46c.1.12.22.23.38.31-.16-.09-.28-.19-.38-.31ZM224.39,760.6c.9.08,1.82.08,2.73.14h0c-.91-.05-1.83-.05-2.73-.14ZM252.05,621.49c.05-.24.07-.48.06-.72,0,.23-.01.47-.06.72ZM250.82,621.73c.17.13.3.22.42.28.12.06.21.08.3.06.09-.02.17-.07.25-.17-.08.1-.16.15-.25.17-.09.02-.18,0-.3-.06-.12-.06-.25-.15-.42-.28h0ZM247.58,616.82c-.09,0-.18.02-.27.01.09,0,.18,0,.27-.01ZM247.07,618.63c.1-.14.19-.28.27-.42-.08.14-.17.28-.27.42-.47.1-.95.13-1.39.3.44-.17.92-.21,1.39-.3ZM259.86,687.94c.07-.29.11-.59.16-.89-.14-.12-.27-.25-.39-.38h0c.12.13.25.26.39.38.62-.06,1.23-.1,1.84-.18-.61.08-1.23.13-1.84.18-.05.3-.09.6-.16.89ZM251.57,618.75h0c.22-.02.44-.03.67-.05-.22.02-.45.03-.67.05ZM249.55,614.32s0,0,0,0c-.22-.93,0-1.66.55-2.26-.55.59-.77,1.33-.55,2.26Z"/>
      <path class="cls-1" d="M557.36,302.32c-5.21-7.13-22.5-3.71-30.1-4.08-6.4-.31-16.14-1.93-20.88,3.38-4.48,5.02-2.84,14.36-3.6,20.5-1.42,11.47-3.32,22.88-5.91,34.14-5.23,22.77-13.31,45.03-25.55,65-5.82,9.49-12.66,18.55-21.51,25.31-13.78,10.54-30.13,13.13-45.96,5.78-10.47-4.86-19.12-12.96-26.56-21.79-15.73-18.66-26.61-40.84-34.45-63.84-3.97-11.67-7.19-23.58-9.97-35.59-2.19-9.45,1.14-35.31-14.54-32.58-8.78,1.53-46.74,1.93-44.3,14.88,7.56,40.15,18.63,81.04,37.9,117.31,16.88,31.78,43.7,63.72,78.93,75.41.75.25,1.54.32,2.33.27.31.4.7.7,1.19.85.03.62.19,1.26-.12,1.84-2.33,4.43-.81,12.72-.87,17.49-.1,8.56-.21,17.13-.31,25.69-.2,16.62-.4,33.24-.61,49.87,0,37.28-.65,74.56-1.21,111.83-.28,19.04-.5,38.08-.71,57.13-.11,9.52-.19,19.04-.32,28.56-.1,7.57-1.72,15.84.92,23.11.17.39.58.77.97.97,5.21,2.75,13.17.08,18.69-.04,8.92-.18,17.81,1.29,26.72.4,10.27-1.02,10.61-15.13,10.55-22.8-.09-12.06-1.33-23.99-1.33-36.11,0-51.71,2.86-103.28,2.82-155.03-.02-18.52-.13-37.04-.15-55.56,0-4.68-2.42-48.32.31-49.19.31-.1.62-.2.93-.3.46.04.95.2,1.39.11,22.33-4.73,41.38-22.54,55.2-40.13,13.06-16.63,22.74-35.7,30.38-55.42,12.56-32.45,19.76-66.97,21.19-101.74.1-2.38-.46-4.23-1.5-5.66ZM289.5,325.81h0c0,.08,0,.16,0,.24,0-.08,0-.16,0-.24ZM404.45,702.06c-.02.06-.04.12-.07.19.02-.06.04-.13.07-.19-.04-.14-.07-.29-.11-.43.04.14.07.29.11.43Z"/>
      <path class="cls-1" d="M1133.05,561.93c-.2-32.87-3.34-65.49-9.14-96.51-9.72-52.03-30.86-101.75-66.7-141.22-16.03-17.66-39.41-29-63.48-29.53-27.23-.6-50.22,12.52-68.27,31.69-53.77,57.09-66.78,141.11-69.28,216.48-1.63,49.24,3.48,98.69,15.47,146.49,8.89,35.45,23.41,72.15,45.96,101.68,13.93,18.25,32.25,33.81,54.06,40.98,68.74,22.61,114.43-48.88,134.32-103.32,18.88-51.67,27.4-109.59,27.05-166.73ZM887.63,598.59c0-.08,0-.16,0-.24,0,.08,0,.16,0,.24,0,.04.01.09.03.14-.02-.05-.03-.1-.03-.14ZM902.84,535.18h0s.04-.09.05-.14c-.02.04-.04.09-.05.14ZM1111.38,572.36c.15-.04.29-.07.44-.1-.15.04-.3.06-.44.1-.17,0-.33-.03-.46-.1.13.07.29.11.46.1ZM1101.59,570.84c.1.29.06.62.09.94-.07.31-.13.62-.21.92.08-.3.14-.61.21-.92-.02-.31.02-.65-.09-.94ZM1023.77,339.19c.04.07.07.14.11.21-.03-.07-.07-.15-.11-.21h0ZM1002.37,360.37c-.22-.04-.43-.06-.65-.06.22,0,.44.02.65.06ZM974.97,364.47c-.24.05-.44.15-.62.28.17-.13.38-.23.62-.28ZM930.77,444.32s0,0,0,.01c0,0,0,0,0-.01ZM936.5,426.36s0,.04.01.07c0-.02,0-.05-.01-.07ZM940.2,379.74h0c-.54-.12-1.09-.2-1.63-.19.54,0,1.09.07,1.63.19ZM941.47,414.57c-.03-.1-.06-.19-.08-.29.02.1.05.2.08.29ZM932.75,337.56c-.07.14-.09.32-.1.48.02.32.03.63.07.95-.03-.31-.05-.63-.07-.95,0-.17.03-.34.1-.48ZM919.26,499.69c-.09-.34-.14-.68-.15-1.03,0,.34.06.69.15,1.03ZM982.61,768.62c.13.2.29.36.47.47.18.12.39.19.63.22-.24-.03-.44-.11-.63-.22-.18-.12-.34-.27-.47-.47ZM1041.68,727.35c.09-.2.13-.43.12-.67,0,.24-.03.47-.12.67ZM1041.7,725.91c-4.31,8.88-9.35,17.4-15.38,25.34-18.79,24.78-48.27,19.99-65.8-3.76-16.5-22.34-24.74-50.19-31.41-76.79-21.88-87.32-23.98-188.13,19.76-269.74,8.66-16.16,21.1-41.55,42.42-42.17,22.26-.65,36.41,25.3,45.23,42.25,20.17,38.78,27.84,82.21,32.19,125.33,4.73,46.89,3.1,94.54-7.55,140.55-4.66,20.12-10.41,40.37-19.44,58.99ZM955.76,385.43c-.06.17-.09.38-.1.64.01-.26.04-.47.1-.64ZM1124.03,583.34c.47-.06.93-.1,1.4-.14h0c-.47.05-.94.08-1.4.14Z"/>
    </g>
  </g>
  <g>
    <path class="cls-3" d="M85.39,225c-5.76,0-10.45-.85-14.05-2.56-3.61-1.7-6.38-4.13-8.32-7.27-1.94-3.14-3.27-6.85-4-11.12-.73-4.27-1.09-9-1.09-14.18v-11.36h16.23v11.89c0,8.19.71,14.04,2.14,17.56,1.43,3.52,4.51,5.28,9.25,5.28,3.28,0,5.69-.63,7.23-1.89,1.53-1.26,2.52-3.29,2.95-6.08.43-2.79.65-6.46.65-11.02,0-5.22-1.12-9.72-3.35-13.48-2.23-3.76-5.45-7.37-9.65-10.82l-9.29-7.64c-2.69-2.26-5.33-4.73-7.91-7.4-2.58-2.68-4.72-5.72-6.42-9.13-1.7-3.41-2.54-7.3-2.54-11.69,0-5.89.75-10.98,2.26-15.27,1.51-4.29,4.25-7.61,8.24-9.96,3.98-2.35,9.64-3.52,16.96-3.52,5.76,0,10.38.82,13.85,2.46,3.47,1.64,6.08,3.97,7.83,7.01,1.75,3.03,2.91,6.63,3.47,10.79.57,4.16.85,8.77.85,13.81v6.91h-15.99v-7.84c0-4.74-.23-8.69-.69-11.85-.46-3.16-1.39-5.54-2.79-7.14-1.4-1.59-3.58-2.39-6.54-2.39-2.69,0-4.89.54-6.58,1.63-1.7,1.09-2.92,2.76-3.67,5.01-.75,2.26-1.13,5.16-1.13,8.7,0,3.1.46,5.66,1.37,7.67.92,2.02,2.3,3.88,4.16,5.61s4.13,3.76,6.82,6.11l9.69,8.43c5.11,4.38,9.3,9.29,12.56,14.71,3.26,5.42,4.89,11.72,4.89,18.89,0,6.46-.77,12.02-2.3,16.67-1.53,4.65-4.27,8.22-8.2,10.72-3.93,2.5-9.56,3.75-16.88,3.75Z"/>
    <path class="cls-3" d="M156.37,225.06c-7,0-12.56-1.14-16.68-3.42s-7.07-5.74-8.84-10.39c-1.78-4.65-2.67-10.51-2.67-17.6v-86.86h16.72v86.53c0,4.21.19,7.81.56,10.82.38,3.01,1.37,5.31,2.99,6.91s4.25,2.39,7.91,2.39,6.35-.8,7.91-2.39c1.56-1.59,2.52-3.88,2.87-6.87.35-2.99.52-6.58.52-10.79v-86.59h16.64v86.86c0,7.08-.86,12.95-2.58,17.6-1.72,4.65-4.62,8.11-8.68,10.39-4.07,2.28-9.62,3.42-16.68,3.42Z"/>
    <path class="cls-3" d="M206.36,223.67v-116.88h28.59c5.65,0,10.24.77,13.77,2.32,3.53,1.55,6.23,3.79,8.12,6.71,1.88,2.92,3.16,6.44,3.84,10.56.67,4.12,1.01,8.74,1.01,13.88v1.79c0,7.84-.74,14.41-2.22,19.72-1.48,5.31-4.15,9.31-8,11.99-3.85,2.68-9.35,4.02-16.51,4.02h-11.87v45.89h-16.72ZM223.08,166.36h10.18c3.28,0,5.76-.76,7.43-2.29,1.67-1.53,2.81-4.06,3.43-7.6.62-3.54.93-8.34.93-14.41v-2.26c0-7.53-.7-13.09-2.1-16.7-1.4-3.61-4.5-5.41-9.29-5.41h-10.58v48.68Z"/>
    <path class="cls-3" d="M278.56,223.67v-116.88h28.59c5.65,0,10.24.77,13.77,2.32,3.53,1.55,6.23,3.79,8.12,6.71,1.88,2.92,3.16,6.44,3.84,10.56.67,4.12,1.01,8.74,1.01,13.88v1.79c0,7.84-.74,14.41-2.22,19.72-1.48,5.31-4.15,9.31-8,11.99-3.85,2.68-9.35,4.02-16.51,4.02h-11.87v45.89h-16.72ZM295.28,166.36h10.18c3.28,0,5.76-.76,7.43-2.29,1.67-1.53,2.81-4.06,3.43-7.6.62-3.54.93-8.34.93-14.41v-2.26c0-7.53-.7-13.09-2.1-16.7-1.4-3.61-4.5-5.41-9.29-5.41h-10.58v48.68Z"/>
    <path class="cls-3" d="M377.41,225c-7.11,0-12.72-1.28-16.84-3.85s-7.05-6.44-8.8-11.62c-1.75-5.18-2.62-11.66-2.62-19.46v-51.53c0-6.73.81-12.57,2.42-17.53,1.62-4.96,4.49-8.81,8.64-11.55,4.15-2.74,10.01-4.12,17.6-4.12,5.71,0,10.36.79,13.97,2.36,3.61,1.57,6.39,3.81,8.36,6.71,1.96,2.9,3.32,6.39,4.08,10.46.75,4.07,1.13,8.63,1.13,13.68v51.53c0,7.79-.85,14.28-2.54,19.46s-4.58,9.05-8.64,11.62c-4.07,2.57-9.65,3.85-16.76,3.85ZM377.41,213.18c3.07,0,5.41-.72,7.03-2.16,1.62-1.44,2.72-3.84,3.31-7.21.59-3.36.89-7.9.89-13.61v-52.46c0-6.99-.67-12.17-2.02-15.54-1.35-3.36-4.28-5.05-8.8-5.05s-7.85,1.67-9.49,5.01c-1.64,3.34-2.46,8.51-2.46,15.51v52.53c0,5.76.3,10.3.89,13.65.59,3.34,1.72,5.73,3.39,7.17,1.67,1.44,4.09,2.16,7.27,2.16Z"/>
    <path class="cls-3" d="M426.99,223.67v-116.88h29.8c7.54,0,13.11,1.1,16.72,3.29,3.61,2.19,5.96,5.49,7.07,9.89,1.1,4.41,1.66,9.95,1.66,16.63,0,7.22-.89,12.95-2.67,17.2-1.78,4.25-5.22,7-10.34,8.23,2.58.35,4.72,1.26,6.42,2.72,1.7,1.46,3.03,3.74,4,6.84.97,3.1,1.66,7.25,2.06,12.45.4,5.2.61,11.74.61,19.62v3.25c0,1.42.03,2.97.08,4.65.05,1.68.12,3.34.2,4.98.08,1.64.2,3.09.36,4.35s.38,2.18.65,2.76h-16.64c-.22-.4-.4-1.28-.57-2.66-.16-1.37-.3-3.19-.4-5.45-.11-2.26-.19-4.95-.24-8.07-.05-3.12-.08-6.62-.08-10.49v-12.72c0-4.43-.23-7.8-.69-10.13-.46-2.32-1.53-3.94-3.23-4.85-1.7-.91-4.4-1.45-8.12-1.63l-9.93-.46v56.45h-16.72ZM443.71,157.13h10.66c3.07,0,5.42-.5,7.07-1.49,1.64-1,2.76-2.99,3.35-5.98.59-2.99.89-7.47.89-13.45v-.8c0-4.96-.28-8.71-.85-11.26-.57-2.55-1.66-4.26-3.27-5.15-1.62-.89-4.07-1.33-7.35-1.33h-10.5v39.45Z"/>
    <path class="cls-3" d="M508.8,223.67v-105.45h-15.67v-11.42h46.92v11.42h-14.62v105.45h-16.64Z"/>
    <path class="cls-3" d="M553.62,223.67v-116.88h16.72v116.88h-16.72Z"/>
    <path class="cls-3" d="M593.6,223.67v-116.88h12.6l32.95,79.55-1.7-33.8v-45.75h14.78v116.88h-12.28l-31.9-80.22.97,29.48v50.73h-15.42Z"/>
    <path class="cls-3" d="M699.47,224.8c-8.24,0-14.56-2.79-18.98-8.37-4.42-5.58-6.62-14.76-6.62-27.56v-49.01c0-5.14.44-9.79,1.33-13.98.89-4.18,2.41-7.8,4.56-10.86,2.15-3.05,5.1-5.4,8.84-7.04,3.74-1.64,8.47-2.46,14.17-2.46s10.65.83,14.17,2.49c3.53,1.66,6.21,4.02,8.04,7.07s3.04,6.71,3.63,10.96c.59,4.25.89,8.94.89,14.08v9.03h-16.15v-15.21c0-5.67-.69-9.86-2.06-12.58-1.37-2.72-4.21-4.08-8.52-4.08-4.58,0-7.75,1.62-9.53,4.85-1.78,3.23-2.67,8.94-2.67,17.13v49.14c0,8.94.74,15.34,2.22,19.19,1.48,3.85,4.64,5.78,9.49,5.78s7.77-1.94,9.41-5.81c1.64-3.87,2.46-10.35,2.46-19.42v-15.21h-11.55v-10.62h26.89v61.36h-8.8l-2.26-9.03c-1.51,3.28-3.89,5.79-7.15,7.54-3.26,1.75-7.2,2.62-11.83,2.62Z"/>
    <path class="cls-3" d="M805.5,223.67v-49.07l-24.71-67.8h16.56l16.47,47.48h.32l14.29-47.48h16.72l-22.94,67.8v49.07h-16.72Z"/>
    <path class="cls-3" d="M884.65,225c-7.11,0-12.72-1.28-16.84-3.85-4.12-2.57-7.05-6.44-8.8-11.62-1.75-5.18-2.62-11.66-2.62-19.46v-51.53c0-6.73.81-12.57,2.42-17.53,1.62-4.96,4.5-8.81,8.64-11.55,4.14-2.74,10.01-4.12,17.6-4.12,5.71,0,10.36.79,13.97,2.36,3.61,1.57,6.39,3.81,8.36,6.71,1.96,2.9,3.32,6.39,4.08,10.46.75,4.07,1.13,8.63,1.13,13.68v51.53c0,7.79-.85,14.28-2.54,19.46-1.7,5.18-4.58,9.05-8.64,11.62-4.07,2.57-9.65,3.85-16.76,3.85ZM884.65,213.18c3.07,0,5.41-.72,7.03-2.16,1.62-1.44,2.72-3.84,3.31-7.21.59-3.36.89-7.9.89-13.61v-52.46c0-6.99-.67-12.17-2.02-15.54-1.35-3.36-4.28-5.05-8.8-5.05s-7.85,1.67-9.49,5.01c-1.64,3.34-2.46,8.51-2.46,15.51v52.53c0,5.76.3,10.3.89,13.65.59,3.34,1.72,5.73,3.39,7.17,1.67,1.44,4.09,2.16,7.27,2.16Z"/>
    <path class="cls-3" d="M961.28,225.06c-7,0-12.56-1.14-16.68-3.42-4.12-2.28-7.07-5.74-8.84-10.39-1.78-4.65-2.67-10.51-2.67-17.6v-86.86h16.72v86.53c0,4.21.19,7.81.57,10.82.38,3.01,1.37,5.31,2.99,6.91s4.25,2.39,7.91,2.39,6.35-.8,7.91-2.39,2.52-3.88,2.87-6.87c.35-2.99.53-6.58.53-10.79v-86.59h16.64v86.86c0,7.08-.86,12.95-2.58,17.6-1.72,4.65-4.62,8.11-8.68,10.39-4.07,2.28-9.62,3.42-16.68,3.42Z"/>
    <path class="cls-3" d="M1017.25,223.67v-105.45h-15.67v-11.42h46.92v11.42h-14.62v105.45h-16.64Z"/>
    <path class="cls-3" d="M1062.07,223.67v-116.88h16.72v50h22.77v-50h16.72v116.88h-16.72v-55.65h-22.77v55.65h-16.72Z"/>
  </g>
  <g>
    <path class="cls-4" d="M79.54,1016.19c-5.21,0-9.37-1.38-12.46-4.15-3.1-2.77-5.31-6.83-6.66-12.19-1.34-5.36-2.02-11.86-2.02-19.52v-48.68c0-5.13.31-9.84.92-14.11.61-4.27,1.7-7.97,3.27-11.09,1.57-3.12,3.76-5.53,6.57-7.24,2.81-1.7,6.41-2.56,10.81-2.56s7.62.81,10.26,2.42c2.65,1.62,4.7,3.92,6.17,6.91,1.47,2.99,2.47,6.53,3.02,10.62.55,4.1.82,8.62.82,13.58v12.95h-12.4v-13.02c0-7.26-.48-12.69-1.44-16.3-.96-3.61-3.11-5.41-6.44-5.41-3.54,0-5.92,1.85-7.12,5.54-1.2,3.7-1.8,9.06-1.8,16.1v50.6c0,5.67.22,10.26.67,13.78.45,3.52,1.29,6.08,2.54,7.67,1.24,1.59,3.02,2.39,5.35,2.39,3.38,0,5.6-1.86,6.66-5.58,1.06-3.72,1.59-9.83,1.59-18.33v-12.95h12.52v12.82c0,7.79-.62,14.34-1.86,19.66-1.24,5.31-3.37,9.32-6.38,12.02-3.01,2.7-7.21,4.05-12.58,4.05Z"/>
    <path class="cls-4" d="M115.7,1014.79v-116.88h12.65v105.52h19.85v11.36h-32.5Z"/>
    <path class="cls-4" d="M158.16,1014.79v-116.88h12.65v116.88h-12.65Z"/>
    <path class="cls-4" d="M188.39,1014.79v-116.88h14.54l16.62,93.43,15.82-93.43h14.6v116.88h-10.81v-44.23l1.04-43.7-16.19,87.92h-9.04l-16.86-87.92,1.04,43.7v44.23h-10.75Z"/>
    <path class="cls-4" d="M267.56,1014.79v-116.88h19.43c5.5,0,9.75.89,12.77,2.66,3.01,1.77,5.13,4.58,6.35,8.43,1.22,3.85,1.85,8.92,1.89,15.21v2.52c0,6.51-.56,11.81-1.68,15.9-1.12,4.1-3.27,7.05-6.44,8.87,2.57,1.11,4.56,3.03,5.99,5.78,1.43,2.75,2.43,6.04,3.02,9.89.59,3.85.89,7.99.89,12.42v2.46c-.08,7.62-.78,13.83-2.11,18.66-1.32,4.83-3.51,8.38-6.57,10.66-3.05,2.28-7.23,3.42-12.52,3.42h-21.01ZM280.21,946.73h7.15c1.71,0,3.09-.21,4.15-.63,1.06-.42,1.88-1.27,2.47-2.56.59-1.28.99-3.19,1.19-5.71.2-2.52.31-5.91.31-10.16v-3.25c0-4.43-.31-7.72-.92-9.89-.61-2.17-1.58-3.61-2.9-4.32-1.32-.71-3.06-1.06-5.22-1.06h-6.23v37.59ZM280.21,1003.7h7.76c2.4,0,4.25-.64,5.56-1.93,1.3-1.28,2.22-3.53,2.75-6.74.53-3.21.79-7.67.79-13.38v-4.05c0-7.22-.53-12.41-1.59-15.57-1.06-3.17-3.34-4.75-6.84-4.75h-8.43v46.42Z"/>
    <path class="cls-4" d="M323.58,1014.79v-116.88h12.65v116.88h-12.65Z"/>
    <path class="cls-4" d="M353.82,1014.79v-116.88h9.53l24.92,79.55-1.28-33.8v-45.75h11.18v116.88h-9.29l-24.13-80.22.73,29.48v50.73h-11.67Z"/>
    <path class="cls-4" d="M433.91,1015.92c-6.23,0-11.02-2.79-14.36-8.37-3.34-5.58-5.01-14.76-5.01-27.56v-49.01c0-5.13.34-9.79,1.01-13.98.67-4.18,1.82-7.8,3.45-10.86,1.63-3.05,3.86-5.4,6.69-7.04,2.83-1.64,6.4-2.46,10.72-2.46s8.05.83,10.72,2.49c2.67,1.66,4.69,4.02,6.08,7.07,1.38,3.05,2.3,6.71,2.75,10.96.45,4.25.67,8.94.67,14.08v9.03h-12.22v-15.21c0-5.67-.52-9.86-1.56-12.58s-3.19-4.08-6.44-4.08c-3.46,0-5.86,1.62-7.21,4.85-1.34,3.23-2.02,8.94-2.02,17.13v49.14c0,8.94.56,15.34,1.68,19.19,1.12,3.85,3.51,5.78,7.18,5.78s5.87-1.94,7.12-5.81c1.24-3.87,1.86-10.35,1.86-19.42v-15.21h-8.74v-10.62h20.34v61.36h-6.66l-1.71-9.03c-1.14,3.28-2.94,5.79-5.41,7.54-2.46,1.75-5.45,2.62-8.95,2.62Z"/>
    <path class="cls-3" d="M523.46,1016.12c-5.38,0-9.62-1.28-12.74-3.85-3.12-2.57-5.34-6.44-6.66-11.62-1.32-5.18-1.99-11.67-1.99-19.46v-51.53c0-6.73.61-12.57,1.83-17.53,1.22-4.96,3.4-8.81,6.54-11.55,3.14-2.74,7.57-4.12,13.32-4.12,4.32,0,7.84.79,10.57,2.36,2.73,1.57,4.84,3.81,6.32,6.71,1.49,2.9,2.51,6.39,3.08,10.46.57,4.07.85,8.63.85,13.68v51.53c0,7.79-.64,14.28-1.92,19.46-1.28,5.18-3.46,9.05-6.54,11.62-3.08,2.57-7.3,3.85-12.68,3.85ZM523.46,1004.3c2.32,0,4.09-.72,5.31-2.16,1.22-1.44,2.06-3.84,2.5-7.21.45-3.36.67-7.9.67-13.61v-52.46c0-6.99-.51-12.17-1.53-15.54-1.02-3.36-3.24-5.05-6.66-5.05s-5.94,1.67-7.18,5.01c-1.24,3.34-1.86,8.51-1.86,15.51v52.53c0,5.76.22,10.3.67,13.65.45,3.34,1.3,5.73,2.57,7.17,1.26,1.44,3.09,2.16,5.5,2.16Z"/>
    <path class="cls-3" d="M560.97,1014.79v-116.88h21.63c4.28,0,7.75.78,10.41,2.32,2.67,1.55,4.71,3.79,6.14,6.71,1.42,2.92,2.39,6.44,2.9,10.56s.76,8.74.76,13.88v1.79c0,7.84-.56,14.41-1.68,19.72-1.12,5.31-3.14,9.31-6.05,11.99-2.91,2.68-7.08,4.02-12.49,4.02h-8.98v45.89h-12.65ZM573.61,957.48h7.7c2.48,0,4.36-.76,5.62-2.29s2.13-4.06,2.6-7.6c.47-3.54.7-8.34.7-14.41v-2.26c0-7.53-.53-13.09-1.59-16.7-1.06-3.61-3.4-5.41-7.03-5.41h-8v48.68Z"/>
    <path class="cls-3" d="M615.58,1014.79v-116.88h21.62c4.28,0,7.75.78,10.42,2.32,2.67,1.55,4.71,3.79,6.14,6.71,1.42,2.92,2.39,6.44,2.9,10.56.51,4.12.76,8.74.76,13.88v1.79c0,7.84-.56,14.41-1.68,19.72-1.12,5.31-3.14,9.31-6.05,11.99-2.91,2.68-7.08,4.02-12.49,4.02h-8.98v45.89h-12.64ZM628.23,957.48h7.7c2.48,0,4.36-.76,5.62-2.29,1.26-1.53,2.13-4.06,2.6-7.6.47-3.54.7-8.34.7-14.41v-2.26c0-7.53-.53-13.09-1.59-16.7-1.06-3.61-3.4-5.41-7.03-5.41h-8v48.68Z"/>
    <path class="cls-3" d="M690.35,1016.12c-5.38,0-9.62-1.28-12.74-3.85s-5.34-6.44-6.66-11.62c-1.32-5.18-1.99-11.67-1.99-19.46v-51.53c0-6.73.61-12.57,1.83-17.53,1.22-4.96,3.4-8.81,6.54-11.55,3.13-2.74,7.57-4.12,13.32-4.12,4.32,0,7.84.79,10.57,2.36,2.73,1.57,4.84,3.81,6.32,6.71,1.49,2.9,2.51,6.39,3.08,10.46.57,4.07.86,8.63.86,13.68v51.53c0,7.79-.64,14.28-1.92,19.46-1.28,5.18-3.46,9.05-6.54,11.62s-7.3,3.85-12.67,3.85ZM690.35,1004.3c2.32,0,4.09-.72,5.31-2.16,1.22-1.44,2.06-3.84,2.5-7.21.45-3.36.67-7.9.67-13.61v-52.46c0-6.99-.51-12.17-1.53-15.54-1.02-3.36-3.24-5.05-6.66-5.05s-5.94,1.67-7.18,5.01c-1.24,3.34-1.86,8.51-1.86,15.51v52.53c0,5.76.22,10.3.67,13.65.45,3.34,1.3,5.73,2.57,7.17,1.26,1.44,3.09,2.16,5.5,2.16Z"/>
    <path class="cls-3" d="M727.86,1014.79v-116.88h22.54c5.7,0,9.92,1.1,12.65,3.29,2.73,2.19,4.51,5.49,5.34,9.89.83,4.41,1.25,9.95,1.25,16.63,0,7.22-.67,12.95-2.02,17.2-1.34,4.25-3.95,7-7.82,8.23,1.96.35,3.57,1.26,4.86,2.72,1.28,1.46,2.29,3.74,3.02,6.84.73,3.1,1.25,7.25,1.56,12.45.31,5.2.46,11.74.46,19.62v3.25c0,1.42.02,2.97.06,4.65.04,1.68.09,3.34.15,4.98.06,1.64.15,3.09.28,4.35.12,1.26.28,2.18.49,2.76h-12.58c-.16-.4-.31-1.28-.43-2.66-.12-1.37-.22-3.19-.31-5.45-.08-2.26-.14-4.95-.18-8.07-.04-3.12-.06-6.62-.06-10.49v-12.72c0-4.43-.17-7.8-.52-10.13s-1.16-3.94-2.44-4.85c-1.28-.91-3.33-1.45-6.14-1.63l-7.51-.46v56.45h-12.64ZM740.5,948.25h8.06c2.32,0,4.1-.5,5.34-1.49,1.24-1,2.09-2.99,2.54-5.98.45-2.99.67-7.47.67-13.45v-.8c0-4.96-.21-8.71-.64-11.26-.43-2.54-1.25-4.26-2.47-5.15-1.22-.88-3.08-1.33-5.56-1.33h-7.94v39.45Z"/>
    <path class="cls-3" d="M789.74,1014.79v-105.45h-11.85v-11.42h35.49v11.42h-11.06v105.45h-12.58Z"/>
    <path class="cls-3" d="M844.11,1016.19c-5.29,0-9.5-1.14-12.61-3.42s-5.35-5.74-6.69-10.39-2.02-10.51-2.02-17.6v-86.86h12.65v86.53c0,4.21.14,7.81.43,10.82.28,3.01,1.04,5.31,2.26,6.91s3.22,2.39,5.99,2.39,4.81-.8,5.99-2.39c1.18-1.59,1.9-3.88,2.17-6.87s.4-6.58.4-10.79v-86.59h12.58v86.86c0,7.08-.65,12.95-1.96,17.6-1.3,4.65-3.49,8.11-6.57,10.39-3.08,2.28-7.28,3.42-12.62,3.42Z"/>
    <path class="cls-3" d="M881.92,1014.79v-116.88h9.53l24.92,79.55-1.28-33.8v-45.75h11.18v116.88h-9.29l-24.13-80.22.73,29.48v50.73h-11.67Z"/>
    <path class="cls-3" d="M943.87,1014.79v-116.88h12.64v116.88h-12.64Z"/>
    <path class="cls-3" d="M978.62,1014.79v-105.45h-11.85v-11.42h35.49v11.42h-11.06v105.45h-12.58Z"/>
    <path class="cls-3" d="M1012.53,1014.79v-116.88h12.64v116.88h-12.64Z"/>
    <path class="cls-3" d="M1042.77,1014.79v-116.88h32.13v11.42h-19.49v39.98h18.45v11.42h-18.45v42.63h19.73v11.42h-32.38Z"/>
    <path class="cls-3" d="M1106.24,1016.12c-4.36,0-7.9-.85-10.63-2.56-2.73-1.7-4.83-4.13-6.29-7.27-1.47-3.14-2.47-6.85-3.02-11.12-.55-4.27-.82-9-.82-14.18v-11.36h12.28v11.89c0,8.19.54,14.04,1.62,17.56,1.08,3.52,3.41,5.28,6.99,5.28,2.48,0,4.31-.63,5.47-1.89,1.16-1.26,1.9-3.29,2.23-6.08.33-2.79.49-6.46.49-11.02,0-5.22-.85-9.72-2.54-13.48-1.69-3.76-4.12-7.37-7.3-10.82l-7.02-7.64c-2.04-2.26-4.03-4.73-5.99-7.4-1.95-2.68-3.57-5.72-4.86-9.13-1.28-3.41-1.92-7.3-1.92-11.69,0-5.89.57-10.98,1.71-15.27,1.14-4.29,3.22-7.61,6.23-9.96,3.01-2.35,7.29-3.52,12.83-3.52,4.36,0,7.85.82,10.48,2.46,2.63,1.64,4.6,3.97,5.93,7.01,1.32,3.03,2.2,6.63,2.63,10.79.43,4.16.64,8.77.64,13.81v6.91h-12.09v-7.84c0-4.74-.17-8.69-.52-11.85-.35-3.17-1.05-5.54-2.11-7.14-1.06-1.59-2.71-2.39-4.95-2.39-2.04,0-3.7.54-4.98,1.63-1.28,1.08-2.21,2.76-2.78,5.01-.57,2.26-.86,5.16-.86,8.7,0,3.1.35,5.66,1.04,7.67.69,2.01,1.74,3.88,3.15,5.61s3.12,3.76,5.16,6.11l7.33,8.43c3.87,4.38,7.04,9.29,9.5,14.71,2.46,5.42,3.7,11.72,3.7,18.89,0,6.46-.58,12.02-1.74,16.67-1.16,4.65-3.23,8.22-6.2,10.72-2.97,2.5-7.23,3.75-12.77,3.75Z"/>
  </g>
  <line class="cls-5" x1="50.82" y1="249.03" x2="1116.99" y2="249.03"/>
  <line class="cls-5" x1="50.82" y1="862.68" x2="1116.99" y2="862.68"/>
</svg>